<svg width="16" height="16" viewBox="0 0 16 16" fill="none" xmlns="http://www.w3.org/2000/svg">
    <path d="M14.7026 6.20409C14.9131 6.27398 15.1073 6.37999 15.2779 6.51466C15.2883 6.36392 15.2738 6.21148 15.2336 6.06179C15.1935 5.91207 15.1299 5.77277 15.0455 5.64746C14.9651 5.84937 14.85 6.03827 14.7026 6.20409Z" fill="#F09A5E"/>
    <path d="M15.2786 9.48535C15.1082 9.61985 14.9143 9.72579 14.7041 9.79572C14.8493 9.95854 14.9652 10.146 15.0469 10.3515C15.1309 10.2265 15.1943 10.0875 15.2343 9.93822C15.2745 9.78857 15.289 9.63609 15.2786 9.48535Z" fill="#F09A5E"/>
    <path d="M13.2884 12.9462C13.1604 12.9462 13.033 12.933 12.9082 12.9072C12.9525 13.1208 12.9591 13.3411 12.9271 13.5599C13.0624 13.4936 13.1868 13.405 13.2961 13.2957C13.4056 13.1862 13.4942 13.0616 13.5606 12.9262C13.4711 12.9392 13.3802 12.9462 13.2884 12.9462Z" fill="#F09A5E"/>
    <path d="M10.3534 15.0456C10.1497 14.964 9.96101 14.848 9.79668 14.7021C9.72676 14.9129 9.62068 15.1074 9.48584 15.2781C9.63658 15.2886 9.78902 15.2741 9.93874 15.234C10.0886 15.1938 10.228 15.1301 10.3534 15.0456Z" fill="#F09A5E"/>
    <path d="M5.64697 15.0456C5.77239 15.1301 5.91176 15.1938 6.06161 15.234C6.21136 15.2741 6.36381 15.2886 6.51455 15.2782C6.3797 15.1074 6.27356 14.9129 6.20364 14.7021C6.03931 14.8481 5.85062 14.964 5.64697 15.0456Z" fill="#F09A5E"/>
    <path d="M3.07456 13.5607C3.04321 13.3456 3.04845 13.1245 3.09312 12.9072C2.96801 12.9331 2.84025 12.9464 2.71194 12.9464C2.6202 12.9464 2.52937 12.9394 2.43994 12.9264C2.50626 13.0619 2.59497 13.1865 2.70442 13.296C2.81403 13.4055 2.9388 13.4943 3.07456 13.5607Z" fill="#F09A5E"/>
    <path d="M1.29726 9.79617C1.08674 9.72628 0.892563 9.62027 0.722009 9.4856C0.711592 9.63634 0.726095 9.78878 0.766231 9.93846C0.806333 10.0882 0.869992 10.2275 0.954384 10.3528C1.03476 10.1509 1.14989 9.96199 1.29726 9.79617Z" fill="#F09A5E"/>
    <path d="M0.722009 6.51465C0.892358 6.38015 1.08623 6.27421 1.29644 6.20428C1.15129 6.04146 1.03534 5.85395 0.953669 5.64844C0.869652 5.77351 0.806231 5.91244 0.766231 6.06175C0.726095 6.21143 0.711592 6.36391 0.722009 6.51465Z" fill="#F09A5E"/>
    <path d="M2.71208 3.05366C2.84008 3.05366 2.9675 3.06683 3.0923 3.0926C3.04801 2.87906 3.04137 2.65873 3.07337 2.43994C2.93809 2.50622 2.81369 2.59483 2.70438 2.70415C2.59494 2.81359 2.50626 2.93819 2.43994 3.07368C2.52941 3.0606 2.62026 3.05366 2.71208 3.05366Z" fill="#F09A5E"/>
    <path d="M5.64697 0.954101C5.85062 1.03567 6.03935 1.15165 6.20367 1.29752C6.27359 1.08673 6.37967 0.89228 6.51451 0.721522C6.36377 0.711104 6.21133 0.725607 6.06161 0.765709C5.91176 0.805879 5.77239 0.869607 5.64697 0.954101Z" fill="#F09A5E"/>
    <path d="M10.3534 0.954101C10.228 0.869607 10.0886 0.805879 9.93874 0.765709C9.78902 0.725607 9.63655 0.711104 9.48584 0.721522C9.62068 0.892314 9.72679 1.08677 9.79675 1.29756C9.96104 1.15165 10.1497 1.03567 10.3534 0.954101Z" fill="#F09A5E"/>
    <path d="M12.9263 2.43945C12.9576 2.6545 12.9524 2.87564 12.9077 3.0929C13.0328 3.06699 13.1606 3.05375 13.2889 3.05375C13.3806 3.05375 13.4715 3.0607 13.5609 3.07373C13.4946 2.93821 13.4059 2.81365 13.2964 2.70417C13.1868 2.59459 13.062 2.5058 12.9263 2.43945Z" fill="#F09A5E"/>
    <path d="M12.3879 13.6473C12.4808 13.3009 12.4367 12.9395 12.2646 12.6261L9.06945 9.43091C8.95714 9.5151 8.83455 9.58621 8.7041 9.64238L9.44075 12.3916C9.47724 12.5278 9.39643 12.6678 9.26022 12.7043C9.23809 12.7103 9.21583 12.7131 9.19397 12.7131C9.08123 12.7131 8.97808 12.6379 8.94751 12.5238L8.21083 9.77443C8.14155 9.78264 8.07119 9.78733 7.99973 9.78733C7.92828 9.78733 7.85794 9.78264 7.78863 9.77443L6.61914 14.139C6.63575 14.8864 7.24845 15.4894 7.9997 15.4894C8.75108 15.4894 9.36381 14.8862 9.38019 14.1387L9.21178 13.5102C9.17529 13.374 9.2561 13.234 9.3923 13.1975C9.52854 13.1609 9.66853 13.2419 9.70502 13.378L9.87329 14.006C10.1229 14.417 10.5726 14.6714 11.0552 14.6714C11.2961 14.6714 11.5344 14.6073 11.7444 14.4861C12.0639 14.3015 12.2924 14.0037 12.3879 13.6473Z" fill="#F09A5E"/>
    <path d="M1.9937 6.12605L6.35792 7.29545C6.41409 7.16497 6.4852 7.04238 6.56939 6.93007L3.37457 3.73524C3.17109 3.62365 2.94291 3.56421 2.71213 3.56421C2.21933 3.56421 1.76034 3.82892 1.51428 4.25514C1.3298 4.57466 1.28078 4.94688 1.37627 5.30328C1.4691 5.64976 1.688 5.94062 1.9937 6.12605Z" fill="#F09A5E"/>
    <path d="M2.71187 12.4356C2.94278 12.4356 3.1711 12.376 3.37467 12.2643L6.56926 9.06977C6.48507 8.95746 6.41396 8.83487 6.35779 8.70439L3.60858 9.44104C3.58645 9.44699 3.56422 9.44982 3.54233 9.44982C3.42958 9.44982 3.32644 9.37458 3.29587 9.26051C3.25937 9.1243 3.34019 8.98429 3.47639 8.94779L6.22577 8.21111C6.21757 8.1418 6.21287 8.07147 6.21287 8.00001C6.21287 7.92856 6.21757 7.85819 6.22577 7.78892L1.86124 6.61938C1.11381 6.63596 0.510742 7.24873 0.510742 7.99998C0.510742 8.75137 1.11394 9.36413 1.86148 9.38047L2.48998 9.2121C2.62615 9.17557 2.76616 9.25642 2.80269 9.39266C2.83918 9.52887 2.75833 9.66885 2.62213 9.70534L1.99347 9.87375C1.35442 10.2618 1.13849 11.094 1.51415 11.7447C1.76017 12.1708 2.21913 12.4356 2.71187 12.4356Z" fill="#F09A5E"/>
    <path d="M14.0064 9.87374L9.64214 8.70435C9.58597 8.83483 9.51485 8.95742 9.43066 9.06972L12.6255 12.2645C12.829 12.3761 13.0572 12.4356 13.2879 12.4356C13.7807 12.4356 14.2397 12.1708 14.4858 11.7446C14.6703 11.4251 14.7193 11.0529 14.6238 10.6965C14.531 10.35 14.3121 10.0592 14.0064 9.87374Z" fill="#F09A5E"/>
    <path d="M6.61914 1.86145L7.78857 6.22577C7.85785 6.21757 7.92821 6.21287 7.99967 6.21287C8.07112 6.21287 8.14146 6.21757 8.21077 6.22577L9.38026 1.86118C9.36358 1.11377 8.75089 0.510742 7.99963 0.510742C7.24825 0.510742 6.63552 1.11394 6.61914 1.86145Z" fill="#F09A5E"/>
    <path d="M4.25499 14.4858C4.465 14.6071 4.7033 14.6711 4.94411 14.6711C5.4269 14.6711 5.87667 14.4166 6.12614 14.0055L7.2953 9.64214C7.16481 9.58597 7.04222 9.51485 6.92992 9.43066L3.73455 12.626C3.3753 13.2816 3.6044 14.1102 4.25499 14.4858Z" fill="#F09A5E"/>
    <path d="M3.61152 2.35268C3.51868 2.69913 3.5628 3.06049 3.73485 3.37392L6.93003 6.56909C7.04234 6.4849 7.16492 6.41379 7.29537 6.35762L6.12618 1.99401C5.87661 1.58305 5.42688 1.32861 4.94425 1.32861C4.70344 1.32861 4.46514 1.39272 4.25513 1.51394C3.93557 1.69845 3.70701 1.99632 3.61152 2.35268Z" fill="#F09A5E"/>
    <path d="M11.744 1.51394C11.5339 1.39268 11.2956 1.32861 11.0548 1.32861C10.572 1.32861 10.1222 1.58318 9.87278 1.99428L8.70361 6.35762C8.8341 6.41379 8.95669 6.4849 9.069 6.56909L12.2644 3.37375C12.6237 2.71813 12.3945 1.88953 11.744 1.51394Z" fill="#F09A5E"/>
    <path d="M14.1387 6.61938L9.77441 7.78878C9.78262 7.85809 9.78732 7.92842 9.78732 7.99988C9.78732 8.07133 9.78262 8.1417 9.77441 8.21098L14.1389 9.38047C14.8863 9.36389 15.4894 8.75113 15.4894 7.99988C15.4894 7.24849 14.8862 6.63573 14.1387 6.61938Z" fill="#F09A5E"/>
    <path d="M13.2881 3.56421C13.0571 3.56421 12.8288 3.62375 12.6253 3.73548L9.43066 6.93004C9.51485 7.04235 9.58597 7.16493 9.64214 7.29545L14.0065 6.12605C14.6455 5.738 14.8614 4.9058 14.4858 4.25514C14.2398 3.82896 13.7808 3.56421 13.2881 3.56421Z" fill="#F09A5E"/>
    <path d="M16 8C16 7.62737 15.8915 7.27973 15.7048 6.98655C15.8133 6.64361 15.8216 6.28095 15.7274 5.92943C15.6332 5.57791 15.4447 5.26798 15.1792 5.02523C15.1943 4.67796 15.1145 4.32266 14.9282 3.99997C14.7462 3.6848 14.4792 3.43428 14.1659 3.2703C14.0884 2.91891 13.9143 2.60054 13.6569 2.34308C13.3995 2.08575 13.0813 1.91159 12.73 1.83411C12.5694 1.52582 12.3227 1.25804 12 1.07176C11.7125 0.905736 11.3859 0.818008 11.0556 0.818008C11.0283 0.818008 11.0011 0.818723 10.974 0.819915C10.7314 0.55486 10.4217 0.366672 10.0705 0.272579C9.71901 0.178451 9.35636 0.186689 9.01338 0.295217C8.7202 0.108494 8.37259 0 8 0C7.6274 0 7.27976 0.108494 6.98659 0.295217C6.64364 0.186689 6.28099 0.178417 5.92946 0.272579C5.57828 0.366672 5.26863 0.55486 5.02601 0.819915C4.99891 0.818757 4.97174 0.818008 4.94448 0.818008C4.61413 0.818008 4.28756 0.905736 4.00003 1.07176C3.68391 1.25426 3.43326 1.51809 3.2689 1.83435C2.91809 1.91197 2.60027 2.08603 2.34318 2.34311C2.08575 2.60058 1.91159 2.91891 1.83414 3.2703C1.52082 3.43425 1.25379 3.68477 1.07183 3.99997C0.889328 4.31608 0.804153 4.66992 0.819949 5.02601C0.554928 5.26863 0.366706 5.57828 0.272647 5.92943C0.178451 6.28092 0.186723 6.64357 0.295285 6.98659C0.108494 7.2798 0 7.6274 0 8C0 8.37263 0.108494 8.72027 0.295217 9.01345C0.186689 9.35639 0.178383 9.71905 0.272579 10.0706C0.366774 10.4221 0.555268 10.732 0.820766 10.9748C0.805651 11.322 0.885481 11.6773 1.0718 12C1.25375 12.3152 1.52078 12.5657 1.83411 12.7297C1.91156 13.0811 2.08572 13.3995 2.34315 13.6569C2.60051 13.9142 2.91874 14.0884 3.27003 14.1659C3.43057 14.4742 3.67734 14.742 4 14.9282C4.28752 15.0943 4.61409 15.182 4.94444 15.182C4.97171 15.182 4.99891 15.1813 5.02601 15.1801C5.26863 15.4451 5.57831 15.6334 5.92946 15.7274C6.09202 15.771 6.25695 15.7927 6.42124 15.7927C6.61212 15.7927 6.80201 15.7629 6.98631 15.7046C7.27952 15.8914 7.62727 16 8 16C8.37273 16 8.72051 15.8914 9.01375 15.7045C9.19803 15.7628 9.38788 15.7926 9.57879 15.7926C9.74305 15.7926 9.90802 15.7709 10.0706 15.7274C10.4218 15.6333 10.7314 15.4451 10.974 15.1801C11.0011 15.1812 11.0283 15.182 11.0556 15.182C11.3859 15.182 11.7125 15.0942 12 14.9282C12.3161 14.7457 12.5668 14.4819 12.7311 14.1656C13.0819 14.088 13.3998 13.9139 13.6569 13.6569C13.9143 13.3994 14.0884 13.0811 14.1659 12.7296C14.4792 12.5657 14.7462 12.3151 14.9282 12C15.1107 11.6839 15.1959 11.33 15.1801 10.974C15.4451 10.7313 15.6333 10.4217 15.7274 10.0705C15.8216 9.71898 15.8133 9.35632 15.7048 9.01338C15.8915 8.7202 16 8.37259 16 8ZM14.486 11.7447C14.2399 12.1709 13.7809 12.4356 13.2881 12.4356C13.0573 12.4356 12.8291 12.3762 12.6257 12.2646L9.43084 9.06975C9.51503 8.95745 9.58614 8.83486 9.64231 8.70437L14.0066 9.87377C14.3123 10.0592 14.5311 10.3501 14.624 10.6965C14.7195 11.0529 14.6704 11.4252 14.486 11.7447ZM9.48548 15.2784C9.62029 15.1076 9.7264 14.9132 9.79632 14.7024C9.96065 14.8482 10.1494 14.9642 10.353 15.0458C10.2276 15.1303 10.0882 15.194 9.93838 15.2342C9.78866 15.2743 9.63622 15.2888 9.48548 15.2784ZM11.0556 14.6713C10.5729 14.6713 10.1232 14.4169 9.8736 14.0059L9.70533 13.378C9.66883 13.2418 9.52885 13.1608 9.39261 13.1974C9.25641 13.2339 9.17559 13.374 9.21208 13.5102L9.38049 14.1387C9.36412 14.8862 8.75139 15.4894 8 15.4894C7.24875 15.4894 6.63605 14.8863 6.6194 14.1389L7.7889 9.77433C7.85818 9.78254 7.92854 9.78723 8 9.78723C8.07146 9.78723 8.14179 9.78254 8.2111 9.77433L8.94778 12.5237C8.97835 12.6378 9.0815 12.713 9.19425 12.713C9.21614 12.713 9.23837 12.7102 9.26049 12.7042C9.3967 12.6677 9.47751 12.5277 9.44102 12.3915L8.70437 9.64228C8.83486 9.58611 8.95745 9.515 9.06972 9.43081L12.2649 12.626C12.4369 12.9394 12.4811 13.3008 12.3882 13.6472C12.2927 14.0036 12.0642 14.3015 11.7446 14.486C11.5347 14.6072 11.2964 14.6713 11.0556 14.6713ZM6.06162 15.2342C5.91176 15.194 5.77239 15.1303 5.64698 15.0458C5.85062 14.9642 6.03935 14.8482 6.20364 14.7023C6.2736 14.9132 6.37971 15.1076 6.51455 15.2784C6.36381 15.2888 6.21134 15.2743 6.06162 15.2342ZM1.99336 9.87377L2.62203 9.70536C2.75823 9.6689 2.83905 9.52888 2.80259 9.39268C2.76609 9.25644 2.62608 9.17559 2.48987 9.21212L1.86138 9.38049C1.11384 9.36415 0.510638 8.75139 0.510638 8C0.510638 7.24875 1.1137 6.63598 1.86114 6.6194L6.22567 7.7889C6.21746 7.85821 6.21277 7.92854 6.21277 8C6.21277 8.07146 6.21746 8.14182 6.22567 8.2111L3.47629 8.94778C3.34009 8.98424 3.25927 9.12429 3.29576 9.26049C3.32633 9.37457 3.42948 9.4498 3.54223 9.4498C3.56412 9.4498 3.58635 9.44698 3.60848 9.44102L6.35769 8.70437C6.41386 8.83486 6.48497 8.95745 6.56916 9.06975L3.37457 12.2643C3.171 12.3761 2.94271 12.4356 2.71176 12.4356C2.219 12.4356 1.76007 12.1708 1.51401 11.7446C1.13838 11.094 1.35431 10.2618 1.99336 9.87377ZM0.721634 9.48551C0.892187 9.62019 1.08637 9.7262 1.29689 9.79609C1.14955 9.96191 1.03438 10.1508 0.954008 10.3527C0.869617 10.2274 0.805957 10.0881 0.765855 9.93838C0.725719 9.78866 0.711217 9.63622 0.721634 9.48551ZM1.51404 4.25532C1.7601 3.82911 2.2191 3.56439 2.7119 3.56439C2.94267 3.56439 3.17086 3.62383 3.37433 3.73542L6.56916 6.93025C6.48497 7.04255 6.41386 7.16514 6.35769 7.29563L1.99346 6.12623C1.68776 5.9408 1.46887 5.64994 1.37603 5.30346C1.28054 4.94706 1.32957 4.57484 1.51404 4.25532ZM9.93838 0.765821C10.0882 0.805991 10.2276 0.869719 10.353 0.954213C10.1494 1.03578 9.96065 1.15176 9.79636 1.29767C9.72643 1.08688 9.62029 0.892426 9.48545 0.721634C9.63622 0.711217 9.78866 0.725719 9.93838 0.765821ZM14.0066 6.12623L9.64231 7.29563C9.58614 7.16514 9.515 7.04255 9.43084 6.93021L12.6254 3.73566C12.829 3.6239 13.0573 3.56439 13.2882 3.56439C13.781 3.56439 14.2399 3.82914 14.486 4.25532C14.8616 4.90597 14.6457 5.73818 14.0066 6.12623ZM14.1389 9.3806L9.77433 8.2111C9.78254 8.14179 9.78723 8.07146 9.78723 8C9.78723 7.92854 9.78254 7.85818 9.77433 7.7889L14.1386 6.61951C14.8862 6.63585 15.4894 7.24861 15.4894 8C15.4894 8.75125 14.8863 9.36402 14.1389 9.3806ZM6.7234 8C6.7234 7.29607 7.29607 6.7234 8 6.7234C8.70393 6.7234 9.2766 7.29607 9.2766 8C9.2766 8.70393 8.70393 9.2766 8 9.2766C7.29607 9.2766 6.7234 8.70393 6.7234 8ZM15.2784 6.51449C15.1078 6.37981 14.9136 6.2738 14.7031 6.20392C14.8505 6.03809 14.9656 5.84919 15.046 5.64728C15.1304 5.77263 15.194 5.9119 15.2341 6.06162C15.2743 6.21134 15.2888 6.36378 15.2784 6.51449ZM13.2882 3.05375C13.1599 3.05375 13.0322 3.06703 12.9071 3.0929C12.9517 2.87564 12.957 2.65447 12.9256 2.43946C13.0614 2.5058 13.1861 2.59459 13.2958 2.70417C13.4052 2.81365 13.4939 2.93821 13.5602 3.07374C13.4708 3.0607 13.38 3.05375 13.2882 3.05375ZM12.2651 3.37382L9.06975 6.56916C8.95745 6.48497 8.83486 6.41386 8.70437 6.35769L9.87353 1.99435C10.123 1.58325 10.5728 1.32868 11.0556 1.32868C11.2964 1.32868 11.5347 1.39278 11.7447 1.51401C12.3953 1.88963 12.6244 2.71823 12.2651 3.37382ZM9.3806 1.86107L8.2111 6.22567C8.14182 6.21746 8.07146 6.21277 8 6.21277C7.92854 6.21277 7.85821 6.21746 7.7889 6.22567L6.61951 1.86134C6.63588 1.11384 7.24861 0.510638 8 0.510638C8.75125 0.510638 9.36395 1.11367 9.3806 1.86107ZM6.51452 0.721634C6.37971 0.892391 6.2736 1.08684 6.20368 1.29763C6.03935 1.15176 5.85062 1.03578 5.64698 0.954213C5.77239 0.869719 5.91176 0.805991 6.06162 0.765821C6.21134 0.725719 6.36378 0.711217 6.51452 0.721634ZM4.94444 1.32868C5.4271 1.32868 5.87683 1.58311 6.12637 1.99408L7.29559 6.35769C7.16511 6.41386 7.04252 6.48497 6.93025 6.56916L3.73508 3.37399C3.56303 3.06056 3.51891 2.6992 3.61174 2.35275C3.70723 1.99639 3.9358 1.69852 4.25532 1.51404C4.46533 1.39278 4.70363 1.32868 4.94444 1.32868ZM3.07319 2.44003C3.04119 2.65883 3.04783 2.87911 3.09212 3.0927C2.96728 3.06693 2.83986 3.05375 2.7119 3.05375C2.62012 3.05375 2.52923 3.0607 2.4398 3.07377C2.50611 2.93825 2.59479 2.81368 2.70424 2.70424C2.81351 2.59493 2.93791 2.50631 3.07319 2.44003ZM0.953294 5.64831C1.03496 5.85379 1.15091 6.04129 1.29607 6.20415C1.08586 6.27408 0.891983 6.38005 0.721634 6.51452C0.711217 6.36378 0.725719 6.21134 0.765855 6.06162C0.805855 5.91231 0.869243 5.77338 0.953294 5.64831ZM2.71176 12.9462C2.84007 12.9462 2.96783 12.933 3.09294 12.9071C3.04827 13.1244 3.04303 13.3455 3.07438 13.5605C2.93862 13.4942 2.81386 13.4054 2.70424 13.2958C2.59479 13.1863 2.50611 13.0618 2.43976 12.9263C2.52919 12.9393 2.62002 12.9462 2.71176 12.9462ZM3.73488 12.6262L6.93025 9.43084C7.04255 9.51503 7.16514 9.58614 7.29563 9.64231L6.12647 14.0057C5.877 14.4167 5.42723 14.6713 4.94444 14.6713C4.70363 14.6713 4.46533 14.6072 4.25532 14.486C3.60473 14.1104 3.37563 13.2818 3.73488 12.6262ZM12.9268 13.56C12.9588 13.3412 12.9522 13.1209 12.9079 12.9073C13.0327 12.9331 13.1601 12.9462 13.2881 12.9462C13.3799 12.9462 13.4708 12.9393 13.5602 12.9262C13.4939 13.0618 13.4052 13.1863 13.2958 13.2958C13.1865 13.4051 13.0621 13.4937 12.9268 13.56ZM15.0467 10.3517C14.965 10.1462 14.8491 9.95867 14.7039 9.79585C14.9141 9.72592 15.108 9.61995 15.2784 9.48548C15.2888 9.63622 15.2743 9.78866 15.2341 9.93838C15.1941 10.0877 15.1308 10.2266 15.0467 10.3517Z" fill="black"/>
    <path d="M9.27634 7.99998C9.27634 7.29605 8.70367 6.72339 7.99974 6.72339C7.29581 6.72339 6.72314 7.29605 6.72314 7.99998C6.72314 8.70392 7.29581 9.27658 7.99974 9.27658C8.70367 9.27658 9.27634 8.70392 9.27634 7.99998Z" fill="#F09A5E"/>
</svg>
