<svg width="64" height="64" viewBox="0 0 64 64" fill="none" xmlns="http://www.w3.org/2000/svg">
    <path d="M53.6665 22.8571C53.6665 31.6705 48.3314 41.7352 42.8425 49.7192C40.1165 53.6842 37.3887 57.0853 35.3418 59.4955C34.3188 60.7001 33.4671 61.6557 32.8724 62.3089C32.7999 62.3885 32.7312 62.4637 32.6665 62.5342C32.6018 62.4637 32.5331 62.3885 32.4606 62.3089C31.8659 61.6557 31.0142 60.7001 29.9912 59.4955C27.9443 57.0853 25.2165 53.6842 22.4905 49.7192C17.0016 41.7352 11.6665 31.6705 11.6665 22.8571C11.6665 10.7494 21.1042 1 32.6665 1C44.2288 1 53.6665 10.7494 53.6665 22.8571Z" fill="#F09A5E" stroke="white" stroke-width="2"/>
    <path d="M24.7363 23.8825V35.2102H27.7898V22.9189H26.6479C26.1131 23.3904 25.4586 23.729 24.7363 23.8825Z" fill="white"/>
    <path d="M28.6758 22.9189V35.0152V35.2101H31.5578V35.0152V22.9189V22.8757H28.6758V22.9189Z" fill="white"/>
    <path d="M36.21 22.9189V35.2102H39.2634V23.8825C38.5413 23.729 37.8867 23.3904 37.3519 22.9189H36.21Z" fill="white"/>
    <path d="M39.557 14.7898H24.443C21.9931 14.7898 20 16.7829 20 19.2328C20 21.3594 21.7301 23.0896 23.8567 23.0896C24.8179 23.0896 25.7601 22.655 26.3872 21.9276C26.8844 21.3509 27.1882 20.603 27.1971 19.7857C27.1773 18.5862 26.2458 17.6167 25.1034 17.6167C23.9488 17.6167 23.0093 18.6072 23.0093 19.8246H22.124C22.124 18.119 23.4606 16.7314 25.1034 16.7314C25.4091 16.7314 25.7042 16.7795 25.982 16.8687C26.9202 17.1699 27.6537 17.9477 27.9422 18.8846C28.2534 19.8952 28.0145 21.0373 27.4767 21.9276H36.5233C35.9855 21.0373 35.7466 19.8952 36.0578 18.8846C36.3463 17.9477 37.0798 17.1699 38.018 16.8687C38.2958 16.7795 38.5908 16.7314 38.8965 16.7314C40.5394 16.7314 41.876 18.119 41.876 19.8246H40.9906C40.9906 18.6072 40.0512 17.6167 38.8965 17.6167C37.7542 17.6167 36.8227 18.5862 36.8029 19.7857C36.8118 20.603 37.1155 21.3509 37.6128 21.9276C38.2399 22.655 39.1821 23.0896 40.1432 23.0896C42.2698 23.0896 44 21.3595 44 19.2328C44 16.7829 42.0069 14.7898 39.557 14.7898Z" fill="white"/>
    <path d="M32.4424 22.9189V35.0152V35.2101H35.3244V35.0152V22.9189V22.8757H32.4424V22.9189Z" fill="white"/>
</svg>
