<svg xmlns="http://www.w3.org/2000/svg" display="none">
    <symbol id="time" viewBox="0 0 18 18">
        <path d="M8.9915 0.666687C4.3915 0.666687 0.666504 4.40002 0.666504 9.00002C0.666504 13.6 4.3915 17.3334 8.9915 17.3334C13.5998 17.3334 17.3332 13.6 17.3332 9.00002C17.3332 4.40002 13.5998 0.666687 8.9915 0.666687ZM8.99984 15.6667C5.3165 15.6667 2.33317 12.6834 2.33317 9.00002C2.33317 5.31669 5.3165 2.33335 8.99984 2.33335C12.6832 2.33335 15.6665 5.31669 15.6665 9.00002C15.6665 12.6834 12.6832 15.6667 8.99984 15.6667ZM9.4165 4.83335H8.1665V9.83335L12.5415 12.4584L13.1665 11.4334L9.4165 9.20835V4.83335Z"/>
    </symbol>

    <symbol id="arrow-bottom" viewBox="0 0 12 13">
        <path d="M2 5L6 9L10 5" stroke-width="2"/>
    </symbol>

    <symbol id="arrow-right" viewBox="0 0 32 32">
        <g>
            <path d="M-0.25 16H32.25C27.7754 15.5556 22.5 14.5 16.7065 9" stroke-width="1.2"/>
            <path d="M-0.25 16H32.25C27.7754 16.4444 22.5 17.5 16.7065 23" stroke-width="1.2"/>
        </g>
    </symbol>

    <symbol id="arrow-left" viewBox="0 0 32 32">
        <g>
            <path d="M32.25 16H-0.25C4.22464 15.5556 9.5 14.5 15.2935 9" stroke-width="1.5"/>
            <path d="M32.25 16H-0.25C4.22464 16.4444 9.5 17.5 15.2935 23" stroke-width="1.5"/>
        </g>
    </symbol>

    <symbol id="arrow-right2" viewBox="0 0 23 42">
        <path d="M1 41L21 21L1 1" stroke-width="2"/>
    </symbol>

    <symbol id="arrow-left2" viewBox="0 0 23 42">
        <path d="M22 1L2 21L22 41" stroke-width="2"/>
    </symbol>


    <symbol id="telegram" viewBox="0 0 17 14">
        <path d="M15.8525 0.0920533L0.793795 5.79416C-0.233902 6.19948 -0.227956 6.76244 0.605243 7.01347L4.47142 8.19776L13.4166 2.65579C13.8396 2.40309 14.226 2.53903 13.9084 2.81592L6.66101 9.2386H6.65931L6.66101 9.23944L6.39432 13.1526C6.78501 13.1526 6.95743 12.9766 7.17656 12.769L9.05444 10.9758L12.9605 13.809C13.6808 14.1984 14.198 13.9983 14.3772 13.1543L16.9414 1.28802C17.2038 0.254685 16.5396 -0.213193 15.8525 0.0920533Z"/>
    </symbol>

    <symbol id="whatsapp" viewBox="0 0 32 32">
        <path d="M27.202 4.65204C25.7349 3.17139 23.9879 1.99753 22.0626 1.19885C20.1373 0.400169 18.0723 -0.00734958 15.988 3.76259e-05C7.254 3.76259e-05 0.136 7.11604 0.128 15.852C0.128 18.65 0.86 21.372 2.242 23.782L0 32L8.408 29.796C10.734 31.0619 13.3399 31.7254 15.988 31.726H15.996C24.732 31.726 31.848 24.61 31.856 15.866C31.858 13.7821 31.4476 11.7184 30.6485 9.79379C29.8494 7.86918 28.6774 6.1217 27.2 4.65204H27.202ZM15.988 29.042C13.626 29.0428 11.3074 28.4072 9.276 27.202L8.796 26.914L3.808 28.222L5.14 23.356L4.828 22.854C3.50761 20.7547 2.80929 18.3241 2.814 15.844C2.814 8.59204 8.728 2.67604 15.996 2.67604C17.7275 2.67293 19.4425 3.01259 21.042 3.67542C22.6416 4.33825 24.0942 5.31116 25.316 6.53804C26.5421 7.76014 27.514 9.21289 28.1758 10.8125C28.8377 12.4121 29.1762 14.1269 29.172 15.858C29.164 23.136 23.25 29.042 15.988 29.042ZM23.218 19.174C22.824 18.976 20.878 18.018 20.512 17.882C20.148 17.752 19.882 17.684 19.622 18.08C19.356 18.474 18.596 19.372 18.368 19.63C18.14 19.896 17.904 19.926 17.508 19.73C17.114 19.53 15.836 19.114 14.324 17.76C13.144 16.71 12.354 15.41 12.118 15.016C11.89 14.62 12.096 14.408 12.294 14.21C12.468 14.034 12.688 13.746 12.886 13.518C13.086 13.29 13.152 13.122 13.282 12.858C13.412 12.59 13.35 12.362 13.252 12.164C13.152 11.966 12.362 10.012 12.028 9.22404C11.708 8.44604 11.382 8.55404 11.138 8.54404C10.91 8.53004 10.644 8.53004 10.378 8.53004C10.1771 8.53503 9.97945 8.58149 9.79739 8.6665C9.61532 8.75151 9.45279 8.87324 9.32 9.02404C8.956 9.42004 7.938 10.378 7.938 12.332C7.938 14.286 9.358 16.164 9.558 16.43C9.754 16.696 12.346 20.694 16.324 22.414C17.264 22.824 18.004 23.066 18.582 23.25C19.532 23.554 20.39 23.508 21.074 23.41C21.834 23.294 23.416 22.45 23.75 21.524C24.078 20.596 24.078 19.804 23.978 19.638C23.88 19.47 23.614 19.372 23.218 19.174Z"/>
    </symbol>

    <symbol id="viber" viewBox="0 0 32 32">
        <path d="M27.7499 3.11755C26.9561 2.3863 23.7436 0.0550529 16.5811 0.0238029C16.5811 0.0238029 8.13737 -0.482447 4.02487 3.29255C1.73737 5.58005 0.931118 8.9363 0.843618 13.0926C0.756118 17.2488 0.649868 25.0363 8.15612 27.1488H8.16237L8.15612 30.3738C8.15612 30.3738 8.10612 31.68 8.96862 31.9425C10.0061 32.2675 10.6186 31.2738 11.6124 30.205C12.1561 29.6175 12.9061 28.755 13.4749 28.0988C18.6124 28.53 22.5561 27.5425 23.0061 27.3988C24.0436 27.0613 29.9124 26.3113 30.8624 18.5238C31.8499 10.4863 30.3874 5.4113 27.7499 3.11755ZM28.6186 17.9363C27.8124 24.4363 23.0561 24.8488 22.1811 25.13C21.8061 25.2488 18.3374 26.1113 13.9811 25.83C13.9811 25.83 10.7311 29.7488 9.71862 30.7675C9.38737 31.0988 9.02487 31.0675 9.03112 30.4113C9.03112 29.98 9.05612 25.055 9.05612 25.055C9.04987 25.055 9.04987 25.055 9.05612 25.055C2.69362 23.2925 3.06862 16.6613 3.13737 13.1926C3.20612 9.7238 3.86237 6.88005 5.79987 4.96755C9.28112 1.8113 16.4499 2.28005 16.4499 2.28005C22.5061 2.30505 25.4061 4.13005 26.0811 4.74255C28.3124 6.65505 29.4499 11.2301 28.6186 17.9363ZM19.9311 12.8863C19.9561 13.4238 19.1499 13.4613 19.1249 12.9238C19.0561 11.5488 18.4124 10.8801 17.0874 10.8051C16.5499 10.7738 16.5999 9.96755 17.1311 9.9988C18.8749 10.0926 19.8436 11.0926 19.9311 12.8863ZM21.1999 13.5926C21.2624 10.9426 19.6061 8.86755 16.4624 8.6363C15.9311 8.5988 15.9874 7.79255 16.5186 7.83005C20.1436 8.09255 22.0749 10.5863 22.0061 13.6113C21.9999 14.1488 21.1874 14.1238 21.1999 13.5926ZM24.1374 14.4301C24.1436 14.9676 23.3311 14.9738 23.3311 14.4363C23.2936 9.34255 19.8999 6.56755 15.7811 6.5363C15.2499 6.53005 15.2499 5.73005 15.7811 5.73005C20.3874 5.7613 24.0936 8.94255 24.1374 14.4301ZM23.4311 20.5613V20.5738C22.7561 21.7613 21.4936 23.0738 20.1936 22.6551L20.1811 22.6363C18.8624 22.2675 15.7561 20.6676 13.7936 19.1051C12.7811 18.305 11.8561 17.3613 11.1436 16.455C10.4999 15.6488 9.84987 14.6926 9.21862 13.5426C7.88737 11.1363 7.59362 10.0613 7.59362 10.0613C7.17487 8.7613 8.48112 7.4988 9.67487 6.8238H9.68737C10.2624 6.5238 10.8124 6.6238 11.1811 7.06755C11.1811 7.06755 11.9561 7.99255 12.2874 8.4488C12.5999 8.8738 13.0186 9.55505 13.2374 9.9363C13.6186 10.6176 13.3811 11.3113 13.0061 11.5988L12.2561 12.1988C11.8749 12.5051 11.9249 13.0738 11.9249 13.0738C11.9249 13.0738 13.0374 17.2801 17.1936 18.3426C17.1936 18.3426 17.7624 18.3926 18.0686 18.0113L18.6686 17.2613C18.9561 16.8863 19.6499 16.6488 20.3311 17.0301C21.2499 17.5488 22.4186 18.355 23.1936 19.0863C23.6311 19.4425 23.7311 19.9863 23.4311 20.5613Z"/>
    </symbol>

    <symbol id="search" viewBox="0 0 21 21">
        <path d="M20 20L15.514 15.506L20 20ZM18 9.5C18 11.7543 17.1045 13.9163 15.5104 15.5104C13.9163 17.1045 11.7543 18 9.5 18C7.24566 18 5.08365 17.1045 3.48959 15.5104C1.89553 13.9163 1 11.7543 1 9.5C1 7.24566 1.89553 5.08365 3.48959 3.48959C5.08365 1.89553 7.24566 1 9.5 1C11.7543 1 13.9163 1.89553 15.5104 3.48959C17.1045 5.08365 18 7.24566 18 9.5V9.5Z"
              stroke-width="1.5" stroke-linecap="round"/>
    </symbol>

    <symbol id="heart" viewBox="0 0 32 32">
        <path d="M15.8313 27C15.2194 27.66 15.2194 27.6599 15.2193 27.6598L15.2189 27.6595L15.2177 27.6584L15.2129 27.6539L15.1943 27.6366L15.1222 27.5695C15.0591 27.5107 14.9664 27.4241 14.8476 27.3127C14.61 27.0899 14.2679 26.7675 13.8487 26.3686C13.0105 25.5711 11.8632 24.4664 10.627 23.2384C8.17354 20.8013 5.30775 17.8175 3.85123 15.7919C0.777122 11.5167 1.71129 4.92882 7.04775 2.70237C9.70401 1.59414 11.9012 2.14845 13.5328 3.28296C14.5315 3.97743 15.3076 4.87858 15.8714 5.71433C16.5454 4.84962 17.4942 3.9386 18.6516 3.24878C20.4795 2.15929 22.8896 1.59142 25.5523 2.70237C28.2418 3.82444 29.5865 6.09263 29.8505 8.57106C30.1109 11.0149 29.3322 13.677 27.8114 15.7919C26.3549 17.8175 23.4891 20.8013 21.0357 23.2384C19.7995 24.4664 18.6521 25.5711 17.8139 26.3686C17.3948 26.7675 17.0526 27.0899 16.815 27.3127C16.6962 27.4241 16.6036 27.5107 16.5405 27.5695L16.4684 27.6366L16.4498 27.6539L16.445 27.6584L16.4437 27.6595L16.4434 27.6598C16.4433 27.6599 16.4432 27.66 15.8313 27ZM15.8313 27L15.2194 27.66C15.5646 27.98 16.098 27.98 16.4432 27.66L15.8313 27Z"
              stroke-width="1.8" stroke-linecap="round" stroke-linejoin="round"/>
    </symbol>

    <symbol id="user" viewBox="0 0 32 32">
        <path d="M15.8548 17C15.8835 17 15.9123 17 15.9468 17C15.9583 17 15.9698 17 15.9814 17C15.9986 17 16.0216 17 16.0389 17C17.7249 16.9712 19.0887 16.3774 20.0957 15.2417C22.3112 12.7398 21.9429 8.45081 21.9026 8.04151C21.7588 4.96887 20.3087 3.49885 19.1117 2.81284C18.2198 2.29977 17.1783 2.02306 16.0159 2H15.9756C15.9698 2 15.9583 2 15.9526 2H15.9181C15.2793 2 14.0249 2.10377 12.8222 2.78978C11.6138 3.47579 10.1407 4.94581 9.9968 8.04151C9.95652 8.45081 9.58824 12.7398 11.8037 15.2417C12.8049 16.3774 14.1687 16.9712 15.8548 17ZM11.5332 8.18563C11.5332 8.16833 11.539 8.15104 11.539 8.13951C11.7289 4.00615 14.6578 3.56226 15.9123 3.56226H15.9353C15.9468 3.56226 15.9641 3.56226 15.9814 3.56226C17.535 3.59685 20.1763 4.23098 20.3547 8.13951C20.3547 8.1568 20.3547 8.1741 20.3604 8.18563C20.3662 8.22598 20.769 12.146 18.9391 14.2098C18.2141 15.0284 17.2473 15.432 15.9756 15.4435C15.9641 15.4435 15.9583 15.4435 15.9468 15.4435C15.9353 15.4435 15.9296 15.4435 15.9181 15.4435C14.6521 15.432 13.6796 15.0284 12.9603 14.2098C11.1362 12.1576 11.5275 8.22022 11.5332 8.18563Z"/>
        <path d="M27.9984 22.9392C27.9984 22.9321 27.9984 22.925 27.9984 22.9179C27.9984 22.861 27.9925 22.8041 27.9925 22.7401C27.9575 21.3322 27.8815 18.04 25.3457 16.9877C25.3282 16.9806 25.3048 16.9734 25.2873 16.9663C22.6521 16.1486 20.461 14.2999 20.4377 14.2785C20.0812 13.9728 19.5904 14.0794 19.3392 14.5132C19.0879 14.9469 19.1756 15.5442 19.532 15.85C19.6313 15.9353 21.9568 17.9049 24.8666 18.8151C26.228 19.4053 26.3799 21.1758 26.4208 22.797C26.4208 22.861 26.4208 22.9179 26.4266 22.9748C26.4325 23.6147 26.3974 24.6031 26.3039 25.1719C25.3574 25.8261 21.6471 28.0873 16.0029 28.0873C10.382 28.0873 6.64842 25.819 5.69603 25.1648C5.60254 24.596 5.56164 23.6076 5.57333 22.9677C5.57333 22.9108 5.57917 22.8539 5.57917 22.7899C5.62007 21.1687 5.77199 19.3982 7.13338 18.808C10.0431 17.8978 12.3686 15.9211 12.4679 15.8429C12.8244 15.5371 12.912 14.9398 12.6608 14.5061C12.4095 14.0723 11.9187 13.9657 11.5623 14.2714C11.5389 14.2928 9.35953 16.1415 6.71269 16.9592C6.68932 16.9663 6.67179 16.9734 6.65426 16.9806C4.11845 18.04 4.04249 21.3322 4.00743 22.733C4.00743 22.797 4.00743 22.8539 4.00159 22.9108C4.00159 22.9179 4.00159 22.925 4.00159 22.9321C3.99575 23.3019 3.9899 25.2004 4.29958 26.1532C4.35801 26.3381 4.46318 26.4945 4.60341 26.6012C4.7787 26.7434 8.97974 30 16.0087 30C23.0377 30 27.2388 26.7363 27.4141 26.6012C27.5485 26.4945 27.6595 26.3381 27.7179 26.1532C28.01 25.2075 28.0042 23.309 27.9984 22.9392Z"/>
    </symbol>

    <symbol id="basket" viewBox="0 0 32 32">
        <path d="M29.266 16.1206L30.9863 6.66028C31.0086 6.53795 31.0036 6.41222 30.9719 6.292C30.9402 6.17177 30.8825 6.05997 30.8028 5.96451C30.7231 5.86905 30.6234 5.79226 30.5108 5.73956C30.3982 5.68686 30.2753 5.65954 30.151 5.65953H7.08605L6.3526 1.62655C6.2698 1.17005 6.02929 0.757125 5.67305 0.459845C5.31681 0.162566 4.86746 -0.000185263 4.40345 1.58263e-07H1.84906C1.62387 1.58263e-07 1.40791 0.0894406 1.24868 0.248646C1.08945 0.407851 1 0.62378 1 0.84893C1 1.07408 1.08945 1.29001 1.24868 1.44921C1.40791 1.60842 1.62387 1.69786 1.84906 1.69786H4.40331C4.46963 1.69776 4.53387 1.72098 4.58481 1.76345C4.63574 1.80591 4.67012 1.86493 4.68194 1.93018L8.5961 23.4559C8.04264 23.9019 7.63021 24.4986 7.40864 25.1738C7.18707 25.8491 7.16585 26.5741 7.34753 27.2612C7.52922 27.9483 7.90604 28.568 8.43246 29.0456C8.95887 29.5231 9.61235 29.838 10.3139 29.9522C11.0155 30.0664 11.7351 29.975 12.3858 29.689C13.0365 29.403 13.5905 28.9347 13.9807 28.3407C14.371 27.7467 14.5808 27.0524 14.5849 26.3417C14.5889 25.6311 14.387 24.9344 14.0036 24.336H22.5247C22.0851 25.0242 21.8872 25.8391 21.962 26.6523C22.0368 27.4654 22.3803 28.2305 22.9381 28.8269C23.4959 29.4233 24.2365 29.8171 25.0429 29.9462C25.8493 30.0753 26.6758 29.9323 27.392 29.5398C28.1081 29.1473 28.6733 28.5276 28.9982 27.7784C29.3232 27.0293 29.3895 26.1933 29.1867 25.4023C28.984 24.6113 28.5236 23.9102 27.8783 23.4098C27.233 22.9093 26.4394 22.6378 25.6227 22.6381H10.1735L9.45322 18.6765H26.2031C26.9323 18.6768 27.6384 18.421 28.1981 17.9539C28.7579 17.4868 29.1359 16.8379 29.266 16.1206ZM12.8868 26.3168C12.8868 26.7086 12.7706 27.0916 12.5529 27.4173C12.3352 27.7431 12.0258 27.997 11.6638 28.1469C11.3018 28.2968 10.9035 28.336 10.5192 28.2596C10.1349 28.1832 9.78187 27.9945 9.5048 27.7175C9.22773 27.4405 9.03905 27.0875 8.96261 26.7033C8.88616 26.319 8.9254 25.9208 9.07534 25.5588C9.22529 25.1968 9.47922 24.8875 9.80501 24.6698C10.1308 24.4522 10.5138 24.336 10.9057 24.336C11.4309 24.3366 11.9345 24.5455 12.3059 24.9168C12.6773 25.2882 12.8862 25.7917 12.8868 26.3168ZM27.6038 26.3168C27.6038 26.7086 27.4876 27.0916 27.2699 27.4173C27.0522 27.7431 26.7428 27.997 26.3808 28.1469C26.0188 28.2968 25.6205 28.336 25.2362 28.2596C24.8519 28.1832 24.4989 27.9945 24.2218 27.7175C23.9447 27.4405 23.7561 27.0875 23.6796 26.7033C23.6032 26.319 23.6424 25.9208 23.7923 25.5588C23.9423 25.1968 24.1962 24.8875 24.522 24.6698C24.8478 24.4522 25.2308 24.336 25.6227 24.336C26.1479 24.3366 26.6515 24.5455 27.0229 24.9168C27.3943 25.2882 27.6032 25.7917 27.6038 26.3168ZM7.39482 7.35739H29.1335L27.5953 15.817C27.5362 16.143 27.3644 16.4379 27.1099 16.6502C26.8555 16.8625 26.5346 16.9788 26.2031 16.9786H9.1443L7.39482 7.35739Z"/>
    </symbol>

    <symbol id="truck" viewBox="0 0 32 32">
        <g>
            <path d="M24.1674 19.0252C21.9432 19.0252 20.1338 20.8346 20.1338 23.0588C20.1338 25.283 21.9432 27.0924 24.1674 27.0924C26.392 27.0924 28.201 25.283 28.201 23.0588C28.201 20.8346 26.3916 19.0252 24.1674 19.0252ZM24.1674 25.0756C23.0552 25.0756 22.1506 24.1711 22.1506 23.0588C22.1506 21.9466 23.0552 21.042 24.1674 21.042C25.2797 21.042 26.1842 21.9466 26.1842 23.0588C26.1842 24.1711 25.2797 25.0756 24.1674 25.0756Z"
                  fill="black"/>
            <path d="M10.3862 19.0252C8.16198 19.0252 6.35254 20.8346 6.35254 23.0588C6.35254 25.283 8.16198 27.0924 10.3862 27.0924C12.6104 27.0924 14.4198 25.283 14.4198 23.0588C14.4198 20.8346 12.6104 19.0252 10.3862 19.0252ZM10.3862 25.0756C9.27391 25.0756 8.36935 24.1711 8.36935 23.0588C8.36935 21.9466 9.27391 21.042 10.3862 21.042C11.4981 21.042 12.403 21.9466 12.403 23.0588C12.403 24.1711 11.4984 25.0756 10.3862 25.0756Z"
                  fill="black"/>
            <path d="M26.885 7.47968C26.7135 7.13918 26.365 6.92436 25.9838 6.92436H20.6729V8.94118H25.3619L28.1078 14.4027L29.9102 13.4964L26.885 7.47968Z"
                  fill="black"/>
            <path d="M21.1429 22.0841H13.5127V24.1009H21.1429V22.0841Z" fill="black"/>
            <path d="M7.36155 22.0841H3.8658C3.3088 22.0841 2.85742 22.5355 2.85742 23.0924C2.85742 23.6494 3.30886 24.1008 3.8658 24.1008H7.36161C7.91861 24.1008 8.36998 23.6494 8.36998 23.0924C8.36998 22.5354 7.91855 22.0841 7.36155 22.0841Z"
                  fill="black"/>
            <path d="M31.7885 15.9193L29.805 13.3647C29.6144 13.1186 29.3203 12.9747 29.0087 12.9747H21.6809V5.91594C21.6809 5.35894 21.2295 4.90756 20.6725 4.90756H3.8658C3.3088 4.90756 2.85742 5.359 2.85742 5.91594C2.85742 6.47287 3.30886 6.92431 3.8658 6.92431H19.6641V13.9831C19.6641 14.5401 20.1155 14.9915 20.6725 14.9915H28.5149L29.9834 16.8832V22.0839H27.1935C26.6365 22.0839 26.1851 22.5354 26.1851 23.0923C26.1851 23.6493 26.6365 24.1007 27.1935 24.1007H30.9918C31.5488 24.1007 32.0002 23.6493 32.0002 23.0923V16.5378C32.0002 16.3139 31.9256 16.0961 31.7885 15.9193Z"
                  fill="black"/>
            <path d="M7.29452 16.9748H2.65584C2.09884 16.9748 1.64746 17.4262 1.64746 17.9832C1.64746 18.5402 2.0989 18.9916 2.65584 18.9916H7.29446C7.85146 18.9916 8.30284 18.5401 8.30284 17.9832C8.3029 17.4262 7.85146 16.9748 7.29452 16.9748Z"
                  fill="black"/>
            <path d="M9.61344 13.0084H1.00838C0.451438 13.0084 0 13.4598 0 14.0168C0 14.5738 0.451438 15.0252 1.00838 15.0252H9.61344C10.1704 15.0252 10.6218 14.5738 10.6218 14.0168C10.6218 13.4599 10.1704 13.0084 9.61344 13.0084Z"
                  fill="black"/>
            <path d="M11.2609 9.04199H2.65584C2.09884 9.04199 1.64746 9.49343 1.64746 10.0504C1.64746 10.6074 2.0989 11.0587 2.65584 11.0587H11.2609C11.8179 11.0587 12.2693 10.6073 12.2693 10.0504C12.2693 9.49343 11.8179 9.04199 11.2609 9.04199Z"
                  fill="black"/>
        </g>
    </symbol>

    <symbol id="auto" viewBox="0 0 32 32">
        <g>
            <path d="M10.719 6C10.2976 6.00172 9.88725 6.13521 9.54547 6.38178C9.20369 6.62834 8.94758 6.97563 8.81302 7.375L7.28002 12H1.71777e-05V20.219C-0.00182665 20.6629 0.144812 21.0947 0.416612 21.4457C0.688412 21.7967 1.06976 22.0467 1.50002 22.156L4.09402 22.813C4.28058 23.7117 4.77057 24.519 5.48177 25.0993C6.19297 25.6796 7.08212 25.9976 8.00002 26C9.85202 26 11.398 24.719 11.844 23H21.156C21.602 24.719 23.148 26 25 26C26.852 26 28.398 24.719 28.844 23H30C31.094 23 32 22.094 32 21V17.25C31.9981 16.3808 31.7136 15.5357 31.1894 14.8424C30.6652 14.149 29.9298 13.6448 29.094 13.406L24.562 12.125L20.656 7.437C20.2823 6.98756 19.8142 6.62585 19.285 6.37751C18.7559 6.12917 18.1786 6.00029 17.594 6H10.719ZM10.49 8.6815C10.6268 8.27432 11.0084 8 11.438 8H14V12H9.37502L10.49 8.6815ZM16 8H17.594C18.187 8 18.746 8.262 19.125 8.719L21.875 12H16V8ZM2.00002 14H23.844L28.562 15.344C28.9783 15.4588 29.3449 15.7079 29.6049 16.0526C29.865 16.3973 30.0039 16.8182 30 17.25V21H28.844C28.398 19.281 26.852 18 25 18C23.148 18 21.602 19.281 21.156 21H11.844C11.398 19.281 9.85202 18 8.00002 18C6.22702 18 4.73802 19.172 4.21902 20.781L2.00002 20.22V14ZM8.00002 20C9.11702 20 10 20.883 10 22C10 23.117 9.11702 24 8.00002 24C6.88302 24 6.00002 23.117 6.00002 22C6.00002 20.883 6.88302 20 8.00002 20ZM25 20C26.117 20 27 20.883 27 22C27 23.117 26.117 24 25 24C23.883 24 23 23.117 23 22C23 20.883 23.883 20 25 20Z"
                  fill="black"/>
        </g>
    </symbol>


</svg>