<svg width="100" height="100" viewBox="0 0 100 100" fill="none" xmlns="http://www.w3.org/2000/svg">
    <path d="M99.9998 50C99.9998 53.1949 98.3404 55.8484 96.8758 58.187C96.0097 59.5728 95.1908 60.8799 94.8837 62.0256C94.555 63.2598 94.6061 64.8563 94.6613 66.5472C94.7498 69.2618 94.8502 72.3386 93.305 75.0059C91.74 77.7126 89.0038 79.1673 86.5904 80.4508C85.116 81.2343 83.7243 81.9744 82.8502 82.8504C81.9743 83.7244 81.2341 85.1161 80.4506 86.5906C79.1672 89.0039 77.7124 91.7402 75.0057 93.3071C72.3384 94.8504 69.2617 94.75 66.5471 94.6614C64.8561 94.6063 63.2597 94.5551 62.0254 94.8839C60.8817 95.1909 59.5727 96.0098 58.1869 96.876C55.8483 98.3406 53.1947 100 49.9999 100H49.9782L43.0186 48.3366L49.9782 0H49.9999C53.1947 0 55.8483 1.65945 58.1869 3.12402C59.5727 3.99016 60.8817 4.80905 62.0254 5.11614C63.2597 5.44488 64.8561 5.3937 66.5471 5.33858C69.2617 5.25 72.3384 5.14961 75.0057 6.69291C77.7124 8.25984 79.1672 10.9961 80.4506 13.4094C81.2341 14.8839 81.9743 16.2756 82.8502 17.1496C83.7243 18.0256 85.116 18.7657 86.5904 19.5492C89.0038 20.8327 91.74 22.2874 93.3069 24.9941C94.8502 27.6614 94.7498 30.7382 94.6613 33.4528C94.6061 35.1437 94.555 36.7402 94.8837 37.9744C95.1908 39.1181 96.0097 40.4272 96.8758 41.811C98.3404 44.1516 99.9998 46.8051 99.9998 50Z" fill="#94E786"/>
    <path d="M49.9783 0V100C46.7933 99.9921 44.1457 98.3366 41.813 96.876C40.4272 96.0098 39.1181 95.1909 37.9744 94.8839C36.7402 94.5551 35.1437 94.6063 33.4528 94.6614C30.7382 94.75 27.6614 94.8504 24.9941 93.3071C22.2874 91.7402 20.8327 89.0039 19.5492 86.5906C18.7657 85.1161 18.0256 83.7244 17.1496 82.8504C16.2756 81.9744 14.8839 81.2343 13.4094 80.4508C10.9961 79.1673 8.25984 77.7126 6.69291 75.0059C5.14961 72.3386 5.25 69.2618 5.33858 66.5472C5.3937 64.8563 5.44488 63.2598 5.11614 62.0256C4.80905 60.8819 3.99016 59.5728 3.12402 58.189C1.65945 55.8484 0 53.1949 0 50C0 46.8051 1.65945 44.1516 3.12402 41.813C3.99016 40.4272 4.80905 39.1201 5.11614 37.9744C5.44488 36.7402 5.3937 35.1437 5.33858 33.4528C5.25 30.7382 5.14961 27.6614 6.69488 24.9941C8.25984 22.2874 10.9961 20.8327 13.4094 19.5492C14.8839 18.7657 16.2756 18.0256 17.1496 17.1496C18.0256 16.2756 18.7657 14.8839 19.5492 13.4094C20.8327 10.9961 22.2874 8.25984 24.9941 6.69291C27.6614 5.14961 30.7382 5.25 33.4528 5.33858C35.1437 5.3937 36.7402 5.44488 37.9744 5.11614C39.1181 4.80905 40.4272 3.99016 41.813 3.12402C44.1457 1.66339 46.7933 0.00787402 49.9783 0V0Z" fill="#94E786"/>
    <path d="M87.6147 49.9999C87.6147 70.7401 70.7407 87.6141 50.0005 87.6141H49.9789L48.5241 85.5031L49.9789 81.7086H50.0005C67.4848 81.7086 81.7092 67.4842 81.7092 49.9999C81.7092 32.5157 67.4848 18.2913 50.0005 18.2913H49.9789L47.5098 15.8999L49.9789 12.3857H50.0005C70.7407 12.3857 87.6147 29.2598 87.6147 49.9999Z" fill="#2AB66A"/>
    <path d="M67.7931 41.9153L49.9782 59.0177L48.5234 55.9055L49.9782 50.8307L63.7026 37.6555L67.7931 41.9153Z" fill="#2AB66A"/>
    <path d="M49.978 50.8306V59.0176L44.4249 64.3483L32.1631 52.0885L36.3402 47.9113L44.5095 56.0806L49.978 50.8306Z" fill="#2AB66A"/>
    <path d="M49.9783 18.2913V12.3857C29.2479 12.3976 12.3857 29.2676 12.3857 49.9999C12.3857 70.7322 29.2479 87.6023 49.9783 87.6141V81.7086C32.5039 81.6968 18.2913 67.4763 18.2913 49.9999C18.2913 32.5235 32.5039 18.3031 49.9783 18.2913Z" fill="#2AB66A"/>
</svg>
