<svg width="31" height="59" viewBox="0 0 31 59" fill="none" xmlns="http://www.w3.org/2000/svg">
    <path d="M10.5 58.5H6.5V14.1333C7.64481 13.4354 8.63645 12.1493 9.44524 10.5H10.5V58.5Z" fill="#F09A5E" stroke="black"/>
    <path d="M24.5 58.5H20.5V10.5H21.5548C22.3636 12.1493 23.3552 13.4354 24.5 14.1333V58.5Z" fill="#F09A5E" stroke="black"/>
    <path d="M7.883 8.46857L7.88299 8.46859C7.17109 9.23881 6.08902 9.70801 4.98162 9.70801C2.47753 9.70801 0.5 7.81512 0.5 5.56122C0.5 2.91779 2.81726 0.708008 5.73891 0.708008H25.2611C28.1828 0.708008 30.5 2.91779 30.5 5.56121C30.5 7.81515 28.5224 9.70801 26.0184 9.70801C24.911 9.70801 23.8289 9.23884 23.117 8.46859L23.117 8.46857C22.5541 7.85959 22.2157 7.07803 22.2038 6.22898C22.2283 5.06667 23.2006 4.11406 24.408 4.11406C25.6313 4.11406 26.6129 5.09137 26.6129 6.27425V6.77425H27.1129H28.2565H28.7565V6.27425C28.7565 3.92809 26.791 2.04737 24.408 2.04737C23.964 2.04737 23.5347 2.11258 23.1298 2.23381L23.2732 2.7128L23.1298 2.23381C21.7634 2.64299 20.691 3.69914 20.2665 4.98486C19.9018 6.08949 20.0525 7.28065 20.5061 8.30797H10.4938C10.9475 7.28066 11.0981 6.08949 10.7335 4.98487C10.309 3.69914 9.23663 2.64299 7.87022 2.23381L7.87021 2.23381C7.46535 2.11258 7.03596 2.04737 6.59196 2.04737C4.20904 2.04737 2.24353 3.92809 2.24353 6.27425V6.77425H2.74353H3.88708H4.38708V6.27425C4.38708 5.09137 5.36874 4.11406 6.59196 4.11406C7.7994 4.11406 8.77168 5.06667 8.79616 6.22898C8.78433 7.07803 8.44592 7.85959 7.883 8.46857Z" fill="#F09A5E" stroke="black"/>
    <path d="M13.5 58.2256V10.5H17.5V58.2256V58.5H13.5V58.2256Z" fill="#F09A5E" stroke="black"/>
</svg>
