<svg width="258" height="70" viewBox="0 0 258 70" fill="none" xmlns="http://www.w3.org/2000/svg">
    <path d="M74.5071 0.416572C74.5071 1.03532 74.5071 1.65118 74.5071 2.26992C74.5071 3.9506 74.5071 5.63129 74.5071 7.30909C74.5071 9.79269 74.5071 12.2792 74.5071 14.7628C74.5071 17.7817 74.5071 20.8034 74.5071 23.8223C74.5071 27.1405 74.5071 30.4616 74.5071 33.7798C74.5071 37.1181 74.5071 40.4564 74.5071 43.7948C74.5071 46.9201 74.5071 50.0426 74.5071 53.168C74.5071 55.807 74.5071 58.4489 74.5071 61.0879C74.5071 62.9845 74.5071 64.8838 74.5071 66.7804C74.5071 67.6783 74.4867 68.5762 74.5071 69.4712C74.5071 69.5086 74.5071 69.546 74.5071 69.5834C74.5071 70.1389 75.3799 70.1389 75.3799 69.5834C75.3799 68.9647 75.3799 68.3488 75.3799 67.7301C75.3799 66.0494 75.3799 64.3687 75.3799 62.6909C75.3799 60.2073 75.3799 57.7208 75.3799 55.2372C75.3799 52.2183 75.3799 49.1966 75.3799 46.1777C75.3799 42.8595 75.3799 39.5384 75.3799 36.2202C75.3799 32.8819 75.3799 29.5435 75.3799 26.2052C75.3799 23.0798 75.3799 19.9573 75.3799 16.832C75.3799 14.193 75.3799 11.5511 75.3799 8.91206C75.3799 7.01554 75.3799 5.11614 75.3799 3.21962C75.3799 2.32172 75.4003 1.42382 75.3799 0.528805C75.3799 0.491393 75.3799 0.453985 75.3799 0.416572C75.3799 -0.138857 74.5071 -0.138857 74.5071 0.416572Z" fill="#F09A5E"/>
    <path d="M84.6172 21.8424L88.2452 19.4969H90.1974V29.1551H86.9883V22.5331H86.8487L85.4551 23.2238L84.6172 21.8424Z" fill="#F09A5E"/>
    <path d="M98.2155 23.3591V25.2901H91.6606V23.3591H98.2155Z" fill="#F09A5E"/>
    <path d="M99.6123 22.6022C99.6123 21.8741 99.8654 21.2783 100.372 20.8092C100.878 20.3402 101.518 19.9919 102.289 19.7617C102.874 19.5862 103.587 19.4998 104.422 19.4998H108.259V29.158H105.05V25.7074H104.422L102.12 29.158H98.6318L101.422 25.2268V25.0886C101.058 24.9505 100.756 24.775 100.514 24.5649C99.9149 24.09 99.6123 23.4368 99.6123 22.6022ZM104.424 24.0497H105.053V21.1517H104.424C104.005 21.1517 103.656 21.2899 103.377 21.5661C103.098 21.8424 102.958 22.1878 102.958 22.6022C102.958 23.0166 103.098 23.3619 103.377 23.6382C103.656 23.9145 104.005 24.0497 104.424 24.0497Z" fill="#F09A5E"/>
    <path d="M127.092 19.497V29.1551H123.882V25.8427C123.882 25.8513 123.72 25.8974 123.394 25.9808C123.088 26.0729 122.646 26.1189 122.07 26.1189C121.011 26.1189 120.094 25.8168 119.321 25.2153C118.55 24.6138 118.163 23.8109 118.163 22.8065V19.4941H121.372V22.8065C121.372 23.2583 121.514 23.6238 121.796 23.903C122.079 24.185 122.451 24.3232 122.905 24.3232C123.269 24.3232 123.592 24.2771 123.882 24.185V19.4941H127.092V19.497Z" fill="#F09A5E"/>
    <path d="M135.043 29.1551L134.415 27.3622H130.996L130.298 29.1551H127.997L131.834 19.4969H134.624L138.459 29.1551H135.043ZM132.672 22.8065L131.625 25.5664H133.786L132.809 22.8065H132.672Z" fill="#F09A5E"/>
    <path d="M144.388 19.2206C145.243 19.2206 146.049 19.3991 146.808 19.7531C147.565 20.107 148.179 20.6193 148.641 21.2927L147.664 22.2597C146.872 21.4309 146.014 21.0193 145.083 21.0193C144.164 21.0193 143.434 21.3445 142.892 21.992C142.354 22.6395 142.084 23.4195 142.084 24.3317C142.084 25.2527 142.357 26.0326 142.907 26.6772C143.457 27.3219 144.181 27.6442 145.083 27.6442C145.587 27.6442 146.078 27.5147 146.561 27.2586C147.044 27.0024 147.457 26.6715 147.803 26.2657L148.781 27.2326C148.316 27.9492 147.693 28.496 146.913 28.8759C146.131 29.2529 145.29 29.4428 144.388 29.4428C143.393 29.4428 142.468 29.2299 141.612 28.8068C140.757 28.3838 140.064 27.7794 139.535 26.9909C139.005 26.2053 138.741 25.3189 138.741 24.3346C138.741 23.3418 139.008 22.4496 139.544 21.6582C140.079 20.8668 140.774 20.2653 141.63 19.8509C142.482 19.4278 143.402 19.2206 144.388 19.2206Z" fill="#F09A5E"/>
    <path d="M152.13 29.1551V21.428H149.2V19.4969H158.266L157.987 21.428H155.336V29.1551H152.13Z" fill="#F09A5E"/>
    <path d="M162.662 19.4969V23.3591H165.452V19.4969H168.661V29.1551H165.452V25.2901H162.662V29.1551H159.453V19.4969H162.662Z" fill="#F09A5E"/>
    <path d="M176.61 29.1551L175.981 27.3622H172.563L171.864 29.1551H169.563L173.4 19.4969H176.191L180.025 29.1551H176.61ZM174.238 22.8065L173.191 25.5664H175.353L174.375 22.8065H174.238Z" fill="#F09A5E"/>
    <path d="M180.863 22.6022C180.863 21.8741 181.116 21.2783 181.623 20.8092C182.129 20.3402 182.769 19.9919 183.54 19.7617C184.125 19.5862 184.838 19.4998 185.675 19.4998H189.51V29.158H186.301V25.7074H185.673L183.371 29.158H179.883L182.673 25.2268V25.0886C182.309 24.9505 182.007 24.775 181.765 24.5649C181.166 24.09 180.863 23.4368 180.863 22.6022ZM185.678 24.0497H186.307V21.1517H185.678C185.259 21.1517 184.91 21.2899 184.631 21.5661C184.352 21.8424 184.212 22.1878 184.212 22.6022C184.212 23.0166 184.352 23.3619 184.631 23.6382C184.91 23.9145 185.259 24.0497 185.678 24.0497Z" fill="#F09A5E"/>
    <path d="M91.591 37.9844H89.9879L89.6388 41.5731C89.5835 42.1803 89.4672 42.7386 89.2897 43.2509C89.1122 43.7603 88.8736 44.2265 88.5711 44.6438C88.2685 45.064 87.8757 45.392 87.3927 45.6309C86.9098 45.8698 86.357 45.9906 85.7315 45.9906C85.3678 45.9906 85.0769 45.959 84.8528 45.8928C84.8063 45.8842 84.7626 45.8726 84.719 45.8583C84.6783 45.8439 84.6434 45.8323 84.623 45.8237C84.5997 45.8151 84.5764 45.8065 84.5532 45.8036C84.5299 45.7978 84.5124 45.7978 84.5037 45.7978L84.4746 45.7834V44.4049C85.1729 44.3128 85.6733 44.0135 85.9817 43.507C86.2901 43.0005 86.485 42.3559 86.5665 41.576L87.1251 36.0562H94.7972V45.7144H91.591V37.9844Z" fill="#F09A5E"/>
    <path d="M100.101 41.7112V43.7804H105.123V45.7115H96.8921V36.0533H104.983L104.704 37.9844H100.101V39.7773H103.45L103.171 41.7084H100.101V41.7112Z" fill="#F09A5E"/>
    <path d="M106.446 36.0533H115.652V45.7115H112.443V37.9844H109.652V45.7115H106.443V36.0533H106.446Z" fill="#F09A5E"/>
    <path d="M120.953 36.0533V39.9155H123.743V36.0533H126.952V45.7115H123.743V41.8494H120.953V45.7115H117.747V36.0533H120.953Z" fill="#F09A5E"/>
    <path d="M134.903 45.7115L134.275 43.9186H130.857L130.158 45.7115H127.857L131.694 36.0533H134.485L138.319 45.7115H134.903ZM132.532 39.3658L131.485 42.1257H133.647L132.669 39.3658H132.532Z" fill="#F09A5E"/>
    <path d="M139.157 39.1586C139.157 38.4305 139.41 37.8347 139.916 37.3656C140.422 36.8965 141.062 36.5483 141.833 36.3181C142.418 36.1425 143.131 36.0562 143.966 36.0562H147.804V45.7144H144.594V42.2638H143.966L141.665 45.7144H138.176L140.966 41.7832V41.645C140.603 41.5069 140.3 41.3314 140.059 41.1213C139.459 40.6493 139.157 39.996 139.157 39.1586ZM143.969 40.6061H144.597V37.7081H143.969C143.55 37.7081 143.201 37.8463 142.922 38.1225C142.642 38.3988 142.503 38.7441 142.503 39.1586C142.503 39.573 142.642 39.9183 142.922 40.1946C143.201 40.4709 143.55 40.6061 143.969 40.6061Z" fill="#F09A5E"/>
    <path d="M162.313 40.4709L159.523 44.1948H158.964L156.034 40.4709H155.895V45.7144H153.803V36.0562H156.593L159.802 40.1946H159.942L163.011 36.0562H165.661V45.7144H162.452V40.4709H162.313Z" fill="#F09A5E"/>
    <path d="M173.61 45.7115L172.982 43.9186H169.563L168.865 45.7115H166.563L170.398 36.0533H173.188L177.026 45.7115H173.61ZM171.239 39.3658L170.191 42.1257H172.353L171.376 39.3658H171.239Z" fill="#F09A5E"/>
    <path d="M182.958 35.777C183.813 35.777 184.619 35.9555 185.378 36.3094C186.135 36.6634 186.749 37.1757 187.211 37.8491L186.234 38.8161C185.442 37.9872 184.584 37.5757 183.653 37.5757C182.731 37.5757 182.003 37.9009 181.462 38.5484C180.924 39.196 180.653 39.9759 180.653 40.8881C180.653 41.8091 180.927 42.589 181.477 43.2336C182.027 43.8782 182.751 44.2006 183.653 44.2006C184.156 44.2006 184.648 44.0711 185.131 43.8149C185.614 43.5588 186.027 43.2279 186.373 42.8221L187.351 43.7891C186.885 44.5056 186.263 45.0524 185.483 45.4323C184.703 45.8093 183.86 45.9993 182.958 45.9993C181.963 45.9993 181.037 45.7863 180.182 45.3632C179.327 44.9402 178.634 44.3358 178.105 43.5473C177.575 42.7616 177.311 41.8753 177.311 40.891C177.311 39.8982 177.578 39.006 178.114 38.2146C178.649 37.4232 179.344 36.8217 180.2 36.4073C181.049 35.9842 181.971 35.777 182.958 35.777Z" fill="#F09A5E"/>
    <path d="M190.7 45.7115V37.9844H187.77V36.0533H196.836L196.556 37.9844H193.906V45.7115H190.7Z" fill="#F09A5E"/>
    <path d="M201.229 41.7112V43.7804H206.251V45.7115H198.02V36.0533H206.111L205.832 37.9844H201.229V39.7773H204.578L204.299 41.7084H201.229V41.7112Z" fill="#F09A5E"/>
    <path d="M211.342 42.6782H210.783V45.7144H207.574V36.0562H211.342C211.935 36.0562 212.509 36.108 213.058 36.2145C213.608 36.321 214.141 36.4908 214.656 36.7239C215.171 36.9599 215.587 37.3023 215.898 37.7599C216.209 38.2146 216.366 38.7528 216.366 39.3686C216.366 40.1601 216.113 40.8047 215.607 41.3083C215.101 41.8091 214.432 42.1803 213.605 42.4192C212.989 42.589 212.235 42.6782 211.342 42.6782ZM210.786 41.0206H211.345C211.836 41.0206 212.241 40.868 212.552 40.5572C212.864 40.2493 213.021 39.8521 213.021 39.3629C213.021 38.865 212.866 38.465 212.561 38.1628C212.255 37.8606 211.848 37.7081 211.348 37.7081H210.789V41.0206H210.786Z" fill="#F09A5E"/>
    <path d="M222.712 35.777C223.567 35.777 224.373 35.9555 225.133 36.3094C225.889 36.6634 226.503 37.1757 226.966 37.8491L225.988 38.8161C225.197 37.9872 224.338 37.5757 223.407 37.5757C222.488 37.5757 221.758 37.9009 221.217 38.5484C220.678 39.196 220.408 39.9759 220.408 40.8881C220.408 41.8091 220.681 42.589 221.231 43.2336C221.781 43.8782 222.506 44.2006 223.407 44.2006C223.911 44.2006 224.402 44.0711 224.885 43.8149C225.368 43.5588 225.782 43.2279 226.128 42.8221L227.105 43.7891C226.64 44.5056 226.017 45.0524 225.237 45.4323C224.458 45.8122 223.614 45.9993 222.712 45.9993C221.717 45.9993 220.792 45.7863 219.937 45.3632C219.081 44.9402 218.389 44.3358 217.859 43.5473C217.33 42.7616 217.065 41.8753 217.065 40.891C217.065 39.8982 217.333 39.006 217.868 38.2146C218.403 37.4232 219.099 36.8217 219.954 36.4073C220.806 35.9842 221.726 35.777 222.712 35.777Z" fill="#F09A5E"/>
    <path d="M234.847 40.4709L238.336 45.7144H234.847L232.197 41.7141H231.638V45.7144H228.429V36.0562H231.638V39.783H232.686L235.057 36.0562H237.637L234.847 40.4709Z" fill="#F09A5E"/>
    <path d="M245.1 45.7115L244.471 43.9186H241.053L240.355 45.7115H238.053L241.888 36.0533H244.678L248.513 45.7115H245.1ZM242.729 39.3658L241.681 42.1257H243.843L242.865 39.3658H242.729Z" fill="#F09A5E"/>
    <path d="M249.354 39.1586C249.354 38.4305 249.607 37.8347 250.113 37.3656C250.619 36.8965 251.259 36.5483 252.03 36.3181C252.615 36.1425 253.328 36.0562 254.166 36.0562H258V45.7144H254.791V42.2638H254.163L251.861 45.7144H248.379L251.169 41.7832V41.645C250.805 41.5069 250.503 41.3314 250.261 41.1213C249.656 40.6493 249.354 39.996 249.354 39.1586ZM254.169 40.6061H254.797V37.7081H254.169C253.75 37.7081 253.401 37.8463 253.121 38.1225C252.842 38.3988 252.702 38.7441 252.702 39.1586C252.702 39.573 252.842 39.9183 253.121 40.1946C253.401 40.4709 253.75 40.6061 254.169 40.6061Z" fill="#F09A5E"/>
    <path d="M24.3633 54.3508C23.9357 54.2933 23.9124 54.0659 24.02 53.6976C24.3662 52.4831 24.7008 51.2629 25.0005 50.034C25.1925 49.2455 25.2856 48.4454 24.6892 47.6799C23.2112 49.7146 23.8862 52.014 23.7873 54.2875C23.3247 53.3148 23.025 52.4284 22.513 51.6773C21.966 50.8743 21.0583 50.6125 20.0778 50.6096C19.8799 51.6255 20.3949 52.2615 21.0292 52.814C21.6052 53.3177 22.2744 53.7177 22.8243 54.2472C23.2199 54.63 23.7029 55.1163 23.7669 55.6056C23.9066 56.6819 23.9182 57.3352 24.0142 57.9079C24.1277 56.7164 24.2411 55.5279 24.3488 54.3278C24.7707 53.5047 25.0936 52.6126 25.6318 51.873C26.6385 50.4916 28.1223 49.7692 29.7545 49.3174C30.5516 49.0958 31.311 48.8023 31.7649 48.0425C30.5604 47.0381 28.7856 46.995 27.3978 48.0109C25.2594 49.5793 24.567 51.8586 24.3633 54.3508ZM18.9344 47.2511C19.0304 47.1274 19.1584 47.0151 19.2195 46.8741C20.3542 44.2667 22.35 42.5544 24.9539 41.4896C25.7395 41.1673 26.5687 40.9457 27.3658 40.6464C28.2416 40.3154 28.9544 39.806 29.2133 38.7671C27.1622 38.016 25.5533 38.8851 23.8891 40.1312C24.2499 38.4275 26.2341 38.3556 26.6967 36.8159C25.1111 37.3512 24.183 38.4074 23.3829 39.6362C22.4111 41.1241 21.3405 42.5544 20.4298 44.0768C19.8305 45.0783 19.4377 46.2007 18.9548 47.2713C18.2303 48.0886 18.3292 49.1361 18.1372 50.1232C17.9976 49.6426 17.9743 49.1793 18.0034 48.716C18.1023 46.9777 18.5853 45.3373 19.3301 43.7631C19.7374 42.9026 19.9672 42.0191 19.7257 40.9802C15.7282 45.6971 18.1401 54.0774 21.131 58.0201C20.8226 57.364 20.4822 56.7222 20.1622 56.0718C19.1439 53.994 18.3845 51.85 18.5969 49.4901C18.658 48.739 18.8151 47.9965 18.9344 47.2511ZM49.3958 47.4065C49.5064 48.1806 49.6751 48.9548 49.7188 49.7318C49.8497 52.1492 48.9914 54.3192 47.9295 56.4344C47.6589 56.9726 47.3854 57.5079 47.1149 58.0431C49.4366 54.4343 50.9611 50.5751 50.6382 46.2122C50.4956 44.2984 49.8497 42.5429 48.523 40.9457C48.2234 42.0393 48.6481 42.9084 48.9507 43.8063C49.39 45.11 49.8613 46.4108 50.161 47.7461C50.3327 48.5087 50.193 49.3376 50.193 50.1347C50.1406 50.1319 50.0883 50.129 50.0359 50.1261C49.9632 49.2426 49.8904 48.362 49.8119 47.4151C49.7421 47.608 49.6955 47.7403 49.614 47.9648C49.5122 47.7173 49.4482 47.5648 49.3871 47.4151C48.8111 46.2036 48.3106 44.9488 47.6356 43.7919C46.8414 42.4307 45.9162 41.1414 45.0055 39.8492C44.5051 39.1355 43.9756 38.4218 43.353 37.8174C42.9021 37.3829 42.2736 37.1267 41.7267 36.79C41.651 36.8936 41.5754 36.9972 41.4997 37.1008C42.0205 37.5411 42.5296 37.9987 43.065 38.416C43.6003 38.8333 44.2258 39.1729 44.3247 40.0967C42.6955 38.8563 41.0924 38.0102 38.8638 38.8448C39.3439 39.3916 39.6319 39.9212 40.0799 40.1859C40.7782 40.5946 41.5754 40.8593 42.3522 41.1184C45.474 42.1659 47.8626 44.0106 49.1544 47.0899C49.198 47.2137 49.3144 47.3029 49.3958 47.4065ZM0 9.84736C22.8388 9.84736 45.5758 9.84736 68.2924 9.84736C68.2924 8.63002 68.2924 7.48462 68.2924 6.32196C45.5031 6.32196 22.769 6.32196 0 6.32196C0 7.52203 0 8.66743 0 9.84736ZM64.2163 12.2418C44.2113 12.2418 24.0142 12.2418 3.97715 12.2418C4.58522 12.9842 5.35039 13.7469 5.88863 14.6448C6.23776 15.2261 6.57234 15.4045 7.2095 15.4045C14.6983 15.3873 22.1871 15.4017 29.6759 15.3729C30.1327 15.37 30.6738 15.1714 31.0346 14.8894C32.8384 13.4821 35.4773 13.4821 37.2229 14.8865C37.5778 15.1743 38.1219 15.3671 38.5816 15.3729C42.4104 15.4103 46.242 15.3959 50.0708 15.3959C53.7861 15.3959 57.5014 15.4074 61.2167 15.3758C61.5426 15.3729 61.9645 15.1801 62.1681 14.9354C62.9013 14.0519 63.5617 13.1137 64.2163 12.2418ZM57.4956 27.4369C57.5945 27.388 57.676 27.3679 57.7313 27.3189C58.991 26.2167 59.41 24.5216 58.7787 23.0942C58.159 21.6984 56.4337 20.7545 54.755 20.8898C51.9357 21.1171 49.6693 23.4108 49.7421 25.9663C49.8148 28.5766 52.3605 31.0688 55.0692 31.1235C57.804 31.1782 59.8755 29.9551 61.1818 27.624C62.526 25.2267 62.5812 22.7287 61.0364 20.3919C58.159 16.0377 50.6731 16.2737 47.6182 21.2294C47.5367 21.3617 47.4814 21.5488 47.4989 21.6956C47.5833 22.3373 47.7026 22.9762 47.8044 23.5863C47.7404 23.618 47.7782 23.6122 47.7869 23.5921C47.9004 23.3647 48.011 23.1374 48.1215 22.91C49.4744 20.1876 51.6157 18.5932 54.7259 18.3544C57.6527 18.127 60.3352 20.0264 60.9723 22.7978C61.5397 25.267 59.8086 28.3262 57.2832 29.3104C54.8422 30.263 52.2616 29.2385 51.4731 27.0024C51.0018 25.667 51.4993 24.0151 52.5933 23.287C53.8618 22.4409 55.9187 22.7661 57.2396 24.0238C58.1851 24.9159 58.2782 26.0786 57.4956 27.4369ZM20.5287 23.6353C20.5607 23.1806 20.6277 22.605 20.6306 22.0294C20.6335 21.6754 20.6509 21.2437 20.4676 20.9761C19.0624 18.9242 17.0869 17.7702 14.6081 17.4075C10.0025 16.7312 5.12637 19.9746 6.32504 25.7073C7.08149 29.3363 10.7793 31.7825 14.259 30.9623C17.0055 30.3148 18.9315 27.4916 18.3991 24.8929C17.8521 22.2222 15.0387 20.461 12.1875 21.0365C10.695 21.3387 9.64176 22.205 9.28391 23.6986C9.01042 24.844 9.40028 26.5822 10.6077 27.2499C10.0753 25.9894 10.0811 25.3159 10.6397 24.467C11.3641 23.3676 13.3483 22.5848 14.6459 22.8726C15.6089 23.0885 16.281 23.6353 16.6709 24.5274C17.2004 25.7476 17.0607 26.9103 16.2781 27.9693C15.3209 29.2701 13.9651 29.7939 12.3853 29.6471C9.92979 29.4198 7.611 27.152 7.27351 24.7375C6.89819 22.0611 8.33253 19.6983 10.9306 18.717C13.7149 17.6665 17.3197 18.7803 19.1555 21.3128C19.7112 22.0927 20.1331 22.9618 20.5287 23.6353ZM2.56609 11.7266C23.6854 11.7266 44.7117 11.7266 65.7787 11.7266C65.7641 11.4158 65.7525 11.1712 65.7409 10.9007C44.6651 10.9007 23.6331 10.9007 2.569 10.9007C2.56609 11.1942 2.56609 11.4417 2.56609 11.7266ZM58.3743 64.6882C57.964 64.6882 57.6003 64.6882 57.2338 64.6882C41.7645 64.6882 26.2981 64.6882 10.8288 64.6882C10.5728 64.6882 10.2993 64.6536 10.0665 64.7313C9.93561 64.7745 9.78723 65.0134 9.79305 65.1573C9.79887 65.2954 9.96761 65.4968 10.1102 65.5429C10.3167 65.6091 10.5611 65.5659 10.791 65.5659C26.3155 65.5659 41.8401 65.5659 57.3647 65.5659C57.6207 65.5659 57.8797 65.563 58.1357 65.5486C58.2113 65.5429 58.2841 65.4882 58.3713 65.4508C58.3742 65.2234 58.3743 65.0076 58.3743 64.6882ZM54.7637 34.5367C54.6997 34.7841 54.5862 35.2072 54.4757 35.6331C54.3215 36.2231 54.0596 36.8102 54.0392 37.403C53.9811 38.9542 54.0305 40.5111 54.0363 42.068C54.0538 46.2697 53.533 50.3937 52.1103 54.371C51.6594 55.6286 51.0775 56.8373 50.5189 58.1525C52.8813 57.6949 54.2836 56.2646 55.1419 54.2184C56.0729 52.0025 55.9536 49.6743 55.7471 47.3691C55.4532 44.048 55.0517 40.7356 56.4308 37.593C55.2059 36.7987 54.9092 35.6072 54.7637 34.5367ZM17.7532 58.1208C17.663 57.8877 17.6193 57.7352 17.5495 57.5971C15.3849 53.3695 14.4335 48.8512 14.3055 44.1459C14.2473 41.9731 14.3404 39.7974 14.2677 37.6275C14.2415 36.8418 13.9389 36.0648 13.712 35.0691C13.0196 36.1281 12.5075 36.9109 11.9198 37.8088C12.5599 39.3254 12.9177 41.1184 12.8276 42.9717C12.7286 45.0006 12.5046 47.0238 12.4086 49.0527C12.2893 51.5449 12.5599 53.9681 14.1833 56.0315C15.0649 57.1596 16.1966 57.8992 17.7532 58.1208ZM26.1293 33.4776C25.3351 33.7107 24.663 33.5208 23.8629 32.7696C23.2636 32.2056 22.7923 31.5062 22.1638 30.9853C21.5936 30.5134 20.9244 30.0846 20.2262 29.8457C19.4028 29.5637 18.5911 30.05 18.3583 30.758C18.0994 31.5408 18.3816 32.125 19.2486 32.6056C19.685 31.1753 20.5055 30.9595 21.6663 31.9696C21.838 32.1192 22.0038 32.2746 22.1755 32.4214C23.4236 33.4776 24.7677 34.3611 26.3912 34.7583C27.8633 35.118 29.3297 35.1899 30.7437 34.5395C33.1381 33.4344 33.7578 30.3234 31.922 28.6946C30.988 27.8657 29.6323 27.86 28.6402 28.6773C27.7557 29.4083 27.4909 30.5364 28.0263 31.4314C28.0263 31.2875 28.0234 31.1753 28.0263 31.0631C28.0496 29.8918 28.8264 29.0169 29.9116 28.9306C30.8629 28.8557 31.8667 29.6069 32.05 30.5335C32.2682 31.6271 31.663 32.5653 30.5138 32.9193C28.1077 33.6589 26.2923 32.7725 25.4194 30.4184C25.2536 29.9695 25.1489 29.4975 24.9772 29.0514C24.7328 28.4125 24.4535 27.7852 24.1568 27.0829C22.1406 29.1637 23.6709 33.3395 26.1293 33.4776ZM44.1705 27.0628C43.8651 27.7103 43.5828 28.2197 43.3792 28.7579C43.097 29.4946 42.9399 30.2832 42.6111 30.994C41.4939 33.4114 39.146 33.5064 37.3305 32.7524C36.4577 32.3898 36.065 31.5091 36.2395 30.5825C36.4054 29.6903 37.1443 29.0198 38.055 28.9334C38.9191 28.85 39.8152 29.4227 40.1207 30.2803C40.2341 30.5997 40.2749 30.9422 40.3563 31.3048C40.9848 29.627 39.4719 27.8398 37.6826 28.096C35.9922 28.3377 34.9157 30.1767 35.3987 31.9955C35.9748 34.1625 38.1597 35.3367 40.7607 34.9798C43.0795 34.6633 44.895 33.4805 46.5999 31.9984C46.9869 31.6617 47.6327 31.3681 48.0953 31.4429C48.4852 31.5062 48.7849 32.1307 49.1689 32.5567C49.6897 32.3236 50.1668 31.8199 49.9486 31.1062C49.8032 30.6343 49.3493 29.9752 48.9594 29.9205C48.2903 29.8256 47.4815 29.9954 46.885 30.3234C46.2653 30.6659 45.8493 31.3566 45.2994 31.8487C44.671 32.4099 44.0251 32.9653 43.321 33.4287C43.0126 33.6301 42.5471 33.5956 42.1514 33.6675C42.1427 33.5956 42.134 33.5236 42.1252 33.4517C44.8281 32.7754 45.9278 29.6702 44.1705 27.0628ZM58.3888 59.1338C58.447 58.2791 57.8418 58.495 57.4752 58.495C41.8954 58.4863 26.3185 58.4863 10.7386 58.4892C10.5117 58.4892 10.2702 58.4691 10.0578 58.5324C9.94143 58.5669 9.83669 58.7511 9.80178 58.8863C9.78723 58.9439 9.96761 59.0964 10.0782 59.1195C10.2702 59.1597 10.4768 59.1367 10.6746 59.1367C26.2544 59.1367 41.8343 59.1367 57.4142 59.1367C57.7255 59.1338 58.0338 59.1338 58.3888 59.1338ZM43.5887 47.6626C43.0039 48.4138 43.0388 49.162 43.2279 49.9131C43.4141 50.6499 43.6876 51.3636 43.8738 52.1003C44.0484 52.7853 44.1618 53.4846 44.3044 54.1782C44.2258 54.1954 44.1444 54.2127 44.0658 54.2299C43.8651 53.45 43.6934 52.6586 43.4607 51.8874C42.9486 50.1923 42.1194 48.7044 40.5105 47.7806C39.1984 47.0266 37.5866 47.136 36.5014 48.0454C37.0745 48.975 38.0724 49.1735 39.0064 49.4728C41.5492 50.2901 43.3385 51.8787 43.9407 54.5091C44.1909 55.6027 44.1415 56.7654 44.2287 57.8964C44.2927 57.292 44.7292 56.61 44.5924 56.0689C44.3568 55.1192 44.9445 54.7163 45.4391 54.2443C46.0326 53.6774 46.7454 53.2371 47.3563 52.6874C47.9557 52.1464 48.4037 51.5075 48.2088 50.5923C45.8347 50.6671 45.0754 52.2816 44.5953 54.1983C44.3131 52.0169 45.0346 49.7318 43.5887 47.6626ZM58.6012 16.8866C51.8106 16.8866 45.1219 16.8866 38.4157 16.8866C38.4536 17.3845 38.4827 17.7932 38.5147 18.2306C42.1456 18.2306 45.7154 18.245 49.2853 18.2133C49.8293 18.2076 50.3734 17.9975 50.9175 17.8709C52.1249 17.5917 53.3235 17.1399 54.5426 17.0708C55.7587 16.9989 57.001 17.3068 58.2957 17.4565C58.3626 17.3356 58.4761 17.1198 58.6012 16.8866ZM9.69995 16.8348C9.84251 17.4047 9.99089 17.6694 10.6891 17.4449C13.0079 16.7053 15.2947 16.8694 17.5088 17.9256C17.8754 18.1011 18.3147 18.2162 18.7191 18.2162C22.094 18.2392 25.4689 18.2277 28.8438 18.2277C29.1231 18.2277 29.4024 18.2277 29.7312 18.2277C29.7312 17.7011 29.7312 17.2694 29.7312 16.832C23.0366 16.8348 16.3858 16.8348 9.69995 16.8348ZM34.296 58.1036C34.5695 57.574 34.9943 57.1049 35.035 56.6013C35.1252 55.4646 35.1427 54.299 34.9827 53.1738C34.4968 49.7261 34.0516 46.2985 35.3638 42.9257C34.5346 42.9257 33.7462 42.9257 32.8937 42.9257C33.6472 44.897 33.912 46.9 33.7549 48.9375C33.6211 50.647 33.3418 52.3449 33.1556 54.0515C32.9984 55.4847 32.8384 56.9352 34.296 58.1036ZM28.8642 41.6594C27.488 41.4522 26.2632 41.5414 25.047 41.9184C21.2241 43.1041 18.2303 47.3605 18.9693 51.4816C19.3592 53.663 20.296 55.5969 21.2677 57.5395C21.5238 58.0489 21.8351 58.2417 22.2278 58.1122C21.6983 57.1049 21.0932 56.1265 20.6568 55.0789C20.2931 54.2069 20.1214 53.2543 19.8683 52.3363C18.9111 48.8972 20.1127 45.9215 23.2956 44.2437C24.407 43.6595 25.69 43.3861 26.9091 43.0206C27.683 42.7962 28.4423 42.5976 28.8642 41.6594ZM45.9395 58.2446C46.2566 58.0662 46.7308 57.9654 46.8647 57.6949C47.5804 56.2588 48.3397 54.8257 48.846 53.3119C50.2454 49.1361 48.8198 45.156 45.1685 42.8307C43.4374 41.7285 41.5375 41.3054 39.4166 41.6767C39.8035 42.5889 40.5483 42.8508 41.331 43.0091C42.9341 43.3286 44.4819 43.7746 45.8202 44.7531C47.5105 45.9877 48.7296 47.5878 48.6598 49.7059C48.5638 52.7335 47.8917 55.6487 45.9395 58.2446ZM30.7378 19.7616C30.6826 19.3472 30.6127 18.9328 30.572 18.5184C30.4294 17.0651 31.8143 15.8621 33.2836 16.9269C33.9091 17.3816 34.4793 17.2435 35.1019 16.8751C36.4083 16.1067 37.6739 16.7945 37.7059 18.2997C37.7175 18.8436 37.5662 19.3933 37.4818 19.9746C38.57 18.0349 38.3343 16.1844 36.8767 15.0592C35.2387 13.7958 32.5679 13.9052 31.1073 15.2923C29.9348 16.406 29.7719 18.3831 30.7378 19.7616ZM20.3134 58.1726C20.3804 58.1208 20.4473 58.0662 20.5171 58.0144C20.4124 57.8187 20.3076 57.6201 20.2 57.4244C18.6551 54.6012 17.4971 51.6427 17.2731 48.4109C17.0782 45.5848 17.6979 42.9285 19.2166 40.4967C19.8305 39.5154 20.36 38.4909 20.0312 36.9915C19.3708 37.8088 18.7453 38.4218 18.3118 39.147C16.7465 41.7745 16.3799 44.6725 16.6883 47.6396C17.052 51.1535 18.3612 54.3997 19.9032 57.5539C20.008 57.7726 20.1738 57.9654 20.3134 58.1726ZM48.1215 37.0778C48.1215 37.5584 48.0371 37.9066 48.1361 38.1916C48.4212 39.0089 48.6859 39.8578 49.1282 40.5917C50.8709 43.4926 51.284 46.6007 50.7982 49.8815C50.4025 52.5694 49.358 55.0214 48.0721 57.3899C47.9528 57.6086 47.848 57.8302 47.7375 58.0518C47.8189 58.0921 47.9033 58.1352 47.9848 58.1755C48.1186 57.9568 48.2757 57.7525 48.3775 57.5222C49.0176 56.0488 49.7159 54.5926 50.2628 53.0846C51.6361 49.3002 52.2412 45.4467 51.0106 41.4925C50.4927 39.8233 49.7042 38.3211 48.1215 37.0778ZM45.2441 47.4468C45.3663 47.3432 45.4972 47.1705 45.6689 47.1014C45.9947 46.9691 46.4253 46.7302 46.6581 46.8453C46.885 46.9547 46.9956 47.4468 47.0247 47.7806C47.1032 48.7591 46.6814 49.5793 46.0878 50.3362C45.6485 50.8974 45.2558 51.4931 44.8426 52.0715C45.6951 50.8456 46.853 50.2642 48.3164 50.2671C48.4706 47.7547 46.8879 45.369 44.4091 44.3042C42.937 43.671 40.8887 43.7919 40.1701 44.5517C41.2204 45.4352 42.4045 45.6107 43.6963 45.1474C43.868 45.0841 44.2695 45.251 44.3568 45.4179C44.6913 46.051 44.9415 46.7331 45.2441 47.4468ZM22.9261 51.3118C22.7777 51.1103 22.4402 50.7679 22.2307 50.3592C21.8409 49.5937 21.4568 48.808 21.2183 47.9907C21.1223 47.6598 21.3056 47.0583 21.5703 46.8799C21.7798 46.7388 22.3151 47.0266 22.6875 47.1763C22.8679 47.2482 23.0046 47.4324 23.0425 47.4669C23.3334 46.7619 23.5865 46.0539 23.9327 45.3949C24.0142 45.2395 24.4739 45.1272 24.663 45.2107C25.6726 45.6453 27.2698 45.3488 28.0903 44.5085C27.1855 43.6883 24.9452 43.6941 23.4236 44.52C21.0757 45.7978 19.6239 48.2094 19.9352 50.0052C21.0583 50.4945 22.0591 50.9319 22.9261 51.3118ZM12.7665 23.6784C11.53 23.6727 10.6106 24.5648 10.5931 25.7793C10.5757 27.0542 11.4834 27.9866 12.749 27.9866C13.9797 27.9866 15.0009 26.9822 14.9747 25.7994C14.9456 24.6281 13.9622 23.6813 12.7665 23.6784ZM53.3293 25.8599C53.341 27.0542 54.2924 27.9981 55.4998 28.0096C56.7159 28.0211 57.7196 27.0196 57.708 25.8052C57.6935 24.6195 56.7392 23.6871 55.5259 23.6813C54.2604 23.6698 53.3148 24.6109 53.3293 25.8599ZM37.1065 60.7656C37.2054 60.8059 37.3044 60.8462 37.4033 60.8865C39.2187 59.6893 40.656 59.9598 41.9158 61.7383C42.6926 62.8319 43.7167 63.4219 45.0986 63.3874C46.1548 63.3615 47.2109 63.3816 48.2699 63.3816C51.0135 63.3816 53.7541 63.3845 56.4977 63.3758C56.8381 63.3758 57.3851 63.5226 57.1058 62.8319C57.0272 62.8147 56.9719 62.7887 56.9166 62.7887C53.3468 62.783 49.7741 62.7341 46.2071 62.7974C44.348 62.829 42.9079 62.3225 41.8314 60.7196C40.8975 59.3353 38.6951 59.1367 37.4004 60.1843C37.2433 60.308 37.1996 60.5699 37.1065 60.7656ZM31.1073 60.803C31.0201 60.5901 30.991 60.3023 30.8309 60.1728C29.4955 59.0821 27.2931 59.4015 26.2981 60.8807C25.3845 62.2391 24.1422 62.7974 22.5304 62.7859C19.0129 62.76 15.4955 62.7715 11.9809 62.7887C11.6958 62.7916 11.4107 62.9643 11.1256 63.0593C11.3961 63.1658 11.6667 63.3672 11.9373 63.3672C15.6817 63.3873 19.429 63.3672 23.1734 63.3874C24.5554 63.396 25.5795 62.8233 26.3534 61.7239C27.6044 59.9569 29.0649 59.6922 31.1073 60.803ZM33.7665 58.1036C32.3206 56.5869 32.7133 54.9408 32.9083 53.3177C33.1846 51.024 33.7229 48.7447 33.3505 46.4165C33.0217 44.3473 32.8588 42.2004 30.956 40.7759C30.8426 40.6895 30.86 40.4478 30.7582 40.3241C30.5516 40.0794 30.3072 39.8665 30.0774 39.6391C30.0599 39.9931 29.9552 40.373 30.0483 40.6953C30.1385 41.0004 30.4673 41.2277 30.636 41.5184C31.247 42.563 31.9714 43.5703 32.402 44.684C33.5978 47.7662 33.2283 50.9089 32.4573 54.017C32.1169 55.3926 31.6252 56.728 31.1917 58.1065C32.0063 58.1036 32.7744 58.1036 33.7665 58.1036ZM33.269 33.4114C33.3854 33.4085 33.5018 33.4056 33.6211 33.4056C33.5018 29.5752 33.3912 25.7448 33.2545 21.9172C33.2166 20.8466 33.109 19.776 33.0072 18.7083C32.9548 18.1558 32.1722 17.5946 31.6485 17.7356C30.9822 17.9169 30.7349 18.3745 30.9328 19.0364C31.0375 19.3875 31.1452 19.7415 31.2994 20.0724C32.6668 23.051 33.2312 26.1937 33.2719 29.4428C33.2836 30.7638 33.269 32.0876 33.269 33.4114ZM38.1161 39.4607C37.8891 39.7485 37.6971 39.9528 37.5546 40.183C37.4236 40.3931 37.4033 40.7586 37.2287 40.8421C36.2628 41.2968 36.0184 42.2292 35.6809 43.0724C34.4561 46.1258 34.7557 49.2627 35.2125 52.4111C35.4889 54.3134 36.0155 56.2589 34.7295 58.0719C35.5645 58.0719 36.3152 58.0719 37.1385 58.0719C37.0367 57.8014 36.964 57.5942 36.8796 57.3899C35.8467 54.889 35.2445 52.2788 35.1136 49.5908C34.9652 46.5345 35.7333 43.7228 37.767 41.3284C38.1888 40.8363 38.6281 40.3356 38.1161 39.4607ZM34.8692 33.1553C34.8401 33.1984 34.8866 33.161 34.8866 33.1207C34.8983 32.6114 34.9012 32.1049 34.907 31.5955C34.9448 27.5405 35.2707 23.5403 37.0891 19.8048C37.2345 19.5055 37.3509 19.1487 37.3276 18.8292C37.3044 18.504 37.1763 18.0637 36.9378 17.9054C36.6992 17.7471 36.2308 17.7845 35.9253 17.8997C35.3231 18.127 35.1718 18.6652 35.1456 19.2782C35.0728 20.9704 34.907 22.6597 34.8808 24.3518C34.8372 27.3132 34.8692 30.2745 34.8692 33.1553ZM44.6855 31.8775C45.5409 31.1062 46.1751 30.4127 46.9287 29.8831C47.6735 29.3565 48.5638 29.1953 49.422 29.7018C50.2687 30.1997 50.4287 30.9969 50.2774 31.9264C51.0978 31.0659 51.0571 29.9004 50.0854 29.1147C49.6606 28.7723 49.0322 28.5564 48.4765 28.5075C47.112 28.3924 46.3439 29.3421 45.5903 30.3148C45.634 29.9954 45.73 29.7133 45.9075 29.5004C46.3788 28.9363 46.9316 28.4327 47.368 27.8456C47.8509 27.1981 48.3077 26.5103 48.6365 25.7793C48.7587 25.5059 48.4852 25.0569 48.3921 24.6886C48.0982 24.9015 47.6618 25.0512 47.5338 25.3361C46.5708 27.4513 45.6718 29.5896 44.6855 31.8775ZM23.316 31.6242C23.3625 31.6099 23.4091 31.5955 23.4556 31.5811C22.6352 29.6759 21.8205 27.7679 20.9942 25.8656C20.8604 25.5548 20.7295 25.2267 20.5142 24.9764C20.3775 24.8152 20.0458 24.6655 19.8799 24.726C19.7112 24.7864 19.4988 25.1605 19.5512 25.3102C19.8043 26.0124 20.0545 26.7434 20.4735 27.3506C20.9506 28.0442 21.6227 28.6082 22.1726 29.2558C22.4228 29.5522 22.5886 29.9205 22.7894 30.2544C22.0358 29.6788 21.3987 29.0169 20.6189 28.6399C19.7519 28.2197 18.8297 28.4154 18.1052 29.1406C17.2528 29.9925 17.212 31.135 17.9947 31.9466C17.9947 31.5724 17.9103 31.1667 18.0092 30.8127C18.4049 29.414 19.9469 28.9565 21.355 29.8831C22.0765 30.3637 22.6672 31.04 23.316 31.6242ZM25.4544 58.0115C25.4544 57.7582 25.4544 57.5079 25.4544 57.2546C25.4515 55.0012 26.4348 53.5277 28.5296 52.6414C29.1318 52.3881 29.7719 52.1867 30.316 51.8442C30.8338 51.519 31.2499 51.0355 31.8434 50.4974C26.7636 49.8642 24.212 54.4947 25.4544 58.0115ZM42.9806 58.2331C43.3559 56.1869 43.2337 54.3451 42.0729 52.7363C40.784 50.9492 38.9453 50.2326 36.5217 50.4312C36.8621 50.8571 37.0425 51.2485 37.348 51.4327C38.0724 51.8701 38.8376 52.2557 39.6232 52.5781C40.8917 53.0961 41.9739 53.827 42.3987 55.1595C42.6955 56.0775 42.7711 57.0647 42.9806 58.2331ZM59.9279 17.9515C63.5937 20.012 64.3705 23.1806 63.7654 25.8196C63.0351 28.9967 60.7891 30.9019 57.1116 31.4516C60.9724 31.8401 63.8643 29.2845 64.484 24.7922C64.9146 21.6668 62.9362 18.4292 59.9279 17.9515ZM8.23361 17.9946C5.47259 18.3054 3.39236 21.4797 3.76477 24.9044C4.14008 28.3579 6.89237 32.0185 11.1925 31.4573C7.50044 30.8904 5.25729 29.0341 4.53285 25.9491C3.76768 22.6827 4.86743 20.3228 8.23361 17.9946ZM26.7345 61.9743C26.6356 62.0204 26.5367 62.0664 26.4377 62.1125C26.6036 62.36 26.717 62.6823 26.9469 62.8377C28.0641 63.5946 30.0047 63.2694 31.023 62.1844C31.3343 61.8534 31.5932 61.4764 31.9045 61.1455C33.2457 59.7209 35.0758 59.7382 36.3995 61.18C36.7458 61.557 37.0425 61.9772 37.4091 62.3341C38.3867 63.2895 40.2225 63.5456 41.2961 62.8636C41.5899 62.6765 42.1514 62.4779 41.6219 61.9455C40.0625 63.1427 38.6951 62.9988 37.412 61.5398C37.0949 61.1771 36.7865 60.7973 36.4228 60.4836C35.6082 59.7814 34.6684 59.5368 33.5716 59.6864C32.3089 59.8562 31.5874 60.7023 30.8338 61.5599C29.5479 63.0161 28.1456 63.1485 26.7345 61.9743ZM52.1801 47.4411C52.1336 47.4382 52.087 47.4353 52.0405 47.4353C52.0405 45.3488 52.1307 43.2595 52.0143 41.1817C51.9067 39.2506 51.3568 37.403 50.193 35.7943C49.8352 35.2993 49.3842 34.5712 48.715 35.0863C48.107 35.5554 48.6598 36.1569 49.0351 36.6173C50.1988 38.0448 51.1007 39.6334 51.4324 41.4292C51.7932 43.412 51.9387 45.4352 52.1801 47.4411ZM16.3334 34.0014C16.2636 34.9453 16.2985 35.7482 16.1355 36.5109C15.1405 41.104 15.1289 45.6913 16.1065 50.2844C16.6854 52.9953 17.5873 55.5941 18.9984 58.0086C15.222 50.3506 14.7769 42.471 17.3924 34.3007C17.0316 34.1971 16.6942 34.105 16.3334 34.0014ZM16.1617 46.192C16.2548 45.1531 16.3043 44.1085 16.4527 43.0753C16.8193 40.5658 17.8055 38.3211 19.4203 36.3296C19.653 36.0418 19.7578 35.2763 19.5686 35.1007C19.0973 34.6604 18.5853 35.0547 18.306 35.5007C17.8143 36.2864 17.3022 37.0864 16.9735 37.9469C15.9493 40.6205 16.089 43.4293 16.1617 46.192ZM50.772 54.9206C52.0725 51.7032 52.8842 48.1663 52.8406 44.543C52.7998 41.0666 52.3227 37.5958 52.0405 34.1366C50.9175 34.0676 50.8069 34.1913 51.1066 35.1237C52.5525 39.6132 52.8958 44.1977 52.1365 48.8368C51.7932 50.9377 51.2113 52.9982 50.772 54.9206ZM30.025 29.3162C29.0766 29.3277 28.323 30.05 28.3172 30.9508C28.3143 31.8631 29.1435 32.6689 30.0716 32.6574C30.959 32.6459 31.7649 31.8573 31.7765 30.9882C31.791 30.0529 31.0084 29.3047 30.025 29.3162ZM38.2034 29.3162C37.2374 29.3219 36.5246 30.0184 36.5188 30.9566C36.5159 31.9092 37.3015 32.6747 38.2645 32.6545C39.1955 32.6344 39.8908 31.8948 39.8821 30.9364C39.8763 29.9637 39.1984 29.3104 38.2034 29.3162ZM25.7744 61.0016C25.8559 60.9498 25.9344 60.8951 26.0159 60.8433C25.9344 60.5929 25.9228 60.1958 25.7569 60.1152C25.2391 59.8648 24.6601 59.5886 24.1044 59.5828C19.7403 59.5396 15.3762 59.554 11.0121 59.554C10.8026 59.554 10.596 59.6001 10.3866 59.626C10.372 59.7209 10.3575 59.8159 10.3429 59.908C10.6513 59.9627 10.9626 60.0605 11.271 60.0605C15.2074 60.072 19.1439 60.0577 23.0803 60.0778C24.0578 60.0835 25.0994 59.98 25.7744 61.0016ZM57.9204 59.9051C57.8884 59.7929 57.8535 59.6835 57.8215 59.5713C53.117 59.5713 48.4125 59.5569 43.708 59.5972C43.2774 59.6001 42.8177 59.9282 42.4336 60.1929C42.294 60.2879 42.3318 60.6361 42.3173 60.7253C43.0853 60.498 43.7225 60.2591 44.3829 60.1325C44.8804 60.0375 45.407 60.072 45.9191 60.0692C49.6577 60.0663 53.3992 60.072 57.1378 60.0605C57.3967 60.0634 57.6585 59.9627 57.9204 59.9051ZM23.5487 48.644C22.9086 48.1346 22.7224 47.1187 21.6634 47.1389C21.2386 48.9318 22.3326 50.0139 23.1647 51.0211C23.5051 49.9534 23.8309 48.8368 24.2382 47.7519C24.3255 47.5216 24.7183 47.4065 25.1809 47.0986C25.0238 46.6611 24.7881 46.005 24.4826 45.1531C23.5865 46.3417 23.3276 47.4094 23.5487 48.644ZM53.7396 31.9005C54.0567 32.0444 54.3389 32.1595 54.6095 32.2977C55.8983 32.9596 56.2097 33.6848 55.8605 35.0547C55.7587 35.4576 55.6714 35.8979 55.7354 36.295C55.7791 36.5684 56.0526 36.9282 56.3057 37.0145C56.5675 37.1037 57.0272 37.0059 57.2221 36.813C57.4782 36.5598 57.6614 36.1454 57.6993 35.7799C57.9408 33.3538 55.619 31.5696 53.7396 31.9005ZM14.4714 31.8833C12.5803 31.8775 11.1256 32.8445 10.7212 34.4762C10.5611 35.118 10.6426 35.8749 10.8288 36.5195C10.9044 36.7814 11.5678 37.0577 11.9169 37.0088C12.1788 36.9713 12.4901 36.4476 12.5541 36.0993C12.6268 35.7108 12.4784 35.2705 12.3737 34.8647C12.1031 33.8258 12.3388 33.1236 13.2407 32.5394C13.5927 32.3121 13.9855 32.1394 14.4714 31.8833ZM46.6406 47.1446C46.0529 47.2338 46.0529 47.2338 44.671 48.7418C44.671 48.0742 44.7524 47.5101 44.6477 46.9777C44.54 46.4223 44.2578 45.9014 44.0542 45.3632C43.9378 45.3546 43.8214 45.3488 43.705 45.3402C43.4723 46.0107 43.2395 46.6813 42.9602 47.4784C44.0774 47.1791 44.6622 48.3879 44.9823 51.1938C45.9307 49.9678 47.0363 48.903 46.6406 47.1446ZM45.442 36.885C45.3081 37.0922 45.2907 37.1124 45.2819 37.1354C44.7612 38.6923 45.3721 40.0219 46.2013 41.268C47.2865 42.8998 48.4386 44.4855 49.3958 45.8553C48.1797 43.0955 46.8414 40.0564 45.442 36.885ZM22.8446 36.8159C21.515 39.8463 20.2669 42.6897 19.01 45.5503C19.6879 44.6006 20.3542 43.6883 20.9942 42.7616C21.5558 41.9472 22.1522 41.1471 22.6177 40.2809C23.1559 39.2736 23.4003 38.1887 22.8446 36.8159ZM50.7429 33.9755C52.247 33.4315 52.7475 33.656 53.3526 34.9511C53.4661 35.1928 53.8094 35.3309 54.0451 35.518C54.1789 35.2302 54.4989 34.8388 54.4058 34.6719C54.1236 34.1596 53.7512 33.6416 53.2799 33.3078C52.9278 33.0574 52.3692 33.0891 51.9008 32.997C51.8863 32.925 51.8747 32.8531 51.8601 32.7812C52.3838 32.7178 52.9279 32.5279 53.4225 32.6171C54.9237 32.8905 55.2001 34.0791 55.1972 35.5784C55.7878 34.3697 55.8227 33.7711 55.3252 33.2474C54.4611 32.3351 53.3614 32.0041 52.1365 32.2487C51.2899 32.4157 50.9116 33.0632 50.7429 33.9755ZM13.005 35.2964C13.3338 33.4661 13.6189 32.9711 14.5412 32.666C15.2104 32.4444 15.8359 32.4617 16.4934 33.0488C16.1123 33.0689 15.8562 33.0632 15.606 33.0948C14.5499 33.2301 13.7877 33.9755 13.8749 34.8359C13.8982 35.0748 14.1164 35.2935 14.2473 35.5238C14.4568 35.377 14.707 35.2648 14.87 35.0777C15.2278 34.6662 15.4547 34.0503 15.8941 33.8287C16.3247 33.6128 16.9531 33.7826 17.4942 33.7826C17.3168 33.0258 16.9356 32.3351 15.961 32.2113C14.7158 32.0502 13.6335 32.3898 12.8363 33.3826C12.4464 33.8776 12.5483 34.6115 13.005 35.2964ZM57.4491 37.1872C58.8078 37.2563 59.7359 36.0562 59.3344 34.7208C58.831 33.0488 57.5189 32.3178 55.7849 31.8286C58.2928 33.4977 58.5692 35.9296 57.4491 37.1872ZM12.3941 31.8631C10.8259 32.2919 9.59812 32.9682 9.02497 34.4561C8.46927 35.8979 9.36246 37.2419 10.8288 37.1987C9.60685 35.4489 10.0898 33.7309 12.3941 31.8631ZM20.8953 54.1379C20.9302 56.0373 22.4373 58.1295 23.668 58.046C23.7785 56.2646 22.7515 54.7911 20.8953 54.1379ZM26.7956 58.0604C26.7694 57.9021 26.749 57.741 26.72 57.5827C26.4174 55.9567 26.9963 55.1595 28.5994 54.8113C29.3064 54.6588 29.993 54.3595 30.6476 54.0458C30.8251 53.9594 30.9793 53.5393 30.9211 53.3407C30.8659 53.1536 30.5254 53.0011 30.284 52.9291C30.0803 52.8687 29.8272 52.9176 29.6061 52.9666C27.4037 53.4702 26.0072 55.8991 26.7956 58.0604ZM44.5924 58.0949C45.9336 58.023 47.5338 55.6833 47.3302 54.1724C45.5467 54.7221 44.5866 56.0775 44.5924 58.0949ZM41.5026 58.0057C41.5899 58.0115 41.6801 58.0172 41.7674 58.023C41.7674 57.5337 41.7965 57.0416 41.7616 56.5553C41.6277 54.7393 39.8501 52.9234 38.1714 52.932C37.8601 52.9349 37.5517 53.2083 37.2433 53.358C37.412 53.6314 37.5167 54.04 37.7611 54.1522C38.4216 54.4573 39.1286 54.7048 39.8414 54.8516C41.2088 55.1365 41.8139 55.948 41.5841 57.3352C41.5492 57.5568 41.5288 57.7812 41.5026 58.0057ZM47.1905 21.7445C47.1032 21.7445 47.013 21.7445 46.9258 21.7445C45.666 23.6583 45.7271 25.9318 45.343 28.096C46.146 26.4326 46.8123 24.7202 47.3854 22.9791C47.5047 22.628 47.2662 22.1618 47.1905 21.7445ZM21.195 21.8107C20.5258 24.2885 22.1813 26.1275 23.0105 28.1938C22.5333 26.0354 22.6177 23.7274 21.195 21.8107ZM30.2054 20.0753C28.8875 19.4249 27.8197 19.6091 26.8451 20.3602C26.013 21.002 25.7162 22.0726 25.9839 23.0194C26.3388 22.7661 26.7287 22.5071 27.0953 22.2165C27.2582 22.087 27.424 21.9172 27.5026 21.7301C28.0641 20.3689 28.55 20.0379 30.2054 20.0753ZM38.0899 20.0782C39.7104 20.0494 40.2516 20.4207 40.7782 21.7157C40.8538 21.897 40.9935 22.0755 41.1506 22.1992C41.5346 22.5014 41.9419 22.7661 42.3929 23.0827C42.5355 21.9747 42.2591 20.9876 41.3193 20.2883C40.4029 19.6062 39.3817 19.4278 38.0899 20.0782ZM32.6551 26.9535C32.082 25.0915 31.5961 23.4281 31.0491 21.7848C30.7087 20.7631 30.3451 20.6653 29.4199 21.1401C30.4614 23.0165 31.5088 24.8958 32.6551 26.9535ZM29.7428 42.5918C29.5886 43.435 29.9232 44.1142 30.316 44.802C30.6593 45.4064 30.927 46.0539 31.2412 46.6726C31.4303 47.0439 31.6485 47.4008 31.8551 47.7634C31.9249 47.7231 31.9947 47.6828 32.0645 47.6425C31.6921 44.5517 30.991 42.9775 29.7428 42.5918ZM38.858 21.1373C37.9212 20.6595 37.6011 20.7689 37.2113 21.7877C37.0309 22.2625 36.8534 22.7374 36.6992 23.2208C36.5188 23.7849 36.3472 24.3519 36.1988 24.9217C36.0533 25.48 35.9428 26.0498 35.8497 26.4728C36.8185 24.7547 37.8397 22.9446 38.858 21.1373ZM36.094 47.7346C36.9378 47.2885 38.5729 43.5358 38.439 42.4364C36.5886 43.7775 36.5828 45.7776 36.094 47.7346ZM42.87 61.3124C42.873 61.3671 42.8788 61.4218 42.8817 61.4764C47.4145 61.4764 51.9474 61.4764 56.4802 61.4764C56.4802 61.4218 56.4802 61.3671 56.4802 61.3124C51.9445 61.3124 47.4058 61.3124 42.87 61.3124ZM25.3554 61.4822C25.3554 61.4333 25.3554 61.3872 25.3554 61.3383C20.8721 61.3383 16.3858 61.3383 11.9024 61.3383C11.9024 61.3872 11.9024 61.4333 11.9024 61.4822C16.3858 61.4822 20.8691 61.4822 25.3554 61.4822ZM36.9552 17.2176C36.6003 16.8233 36.0475 16.619 35.4743 17.042C34.5346 17.7356 33.6851 17.6752 32.7482 17.0219C32.1402 16.596 31.5816 16.8579 31.2964 17.2521C31.8609 17.4824 32.4864 17.6205 32.9723 17.9601C34.1331 18.7688 34.1593 18.7688 35.2678 17.9802C35.7566 17.6291 36.3821 17.468 36.9552 17.2176ZM30.8862 26.7664C30.1327 25.3735 29.1289 24.2195 27.779 23.3935C27.5957 23.2813 27.2116 23.2036 27.1185 23.2986C26.9236 23.5 26.7694 23.8281 26.7752 24.1015C26.781 24.3087 27.0429 24.6598 27.2262 24.6828C28.742 24.8814 29.9174 25.6239 30.8862 26.7664ZM37.2782 26.9362C38.2295 25.6843 39.4486 24.9044 41.0284 24.6828C41.1913 24.6598 41.4357 24.3461 41.4299 24.1734C41.4212 23.8655 41.2873 23.5432 41.1244 23.2755C41.0808 23.2065 40.6909 23.2583 40.5309 23.3619C39.1227 24.254 38.0375 25.4426 37.2782 26.9362ZM29.3704 58.0546C30.6447 57.9079 32.6959 50.7362 31.9918 48.3102C31.794 50.0254 31.7969 51.7262 31.3634 53.3119C30.9066 54.9696 30.0338 56.515 29.3704 58.0546ZM36.385 48.385C36.3239 48.3965 36.2599 48.4051 36.1988 48.4166C36.1784 48.4886 36.1406 48.5605 36.1377 48.6354C35.9573 51.9133 36.9494 54.9063 38.4216 57.7784C38.5089 57.9453 38.7649 58.0288 39.0034 58.1928C38.3197 56.6992 37.6157 55.3754 37.1007 53.9853C36.5275 52.4399 36.1639 50.8341 36.5275 49.1534C36.577 48.9174 36.4374 48.6411 36.385 48.385ZM37.3858 27.7996C38.5583 26.5822 39.9839 25.8138 41.7296 25.5088C40.4727 24.5591 38.1423 25.8253 37.3858 27.7996ZM34.2669 18.9357C34.168 18.9357 34.072 18.9328 33.9731 18.9328C33.8247 21.9229 34.1069 24.9159 34.2669 27.906C34.2669 24.9159 34.2669 21.9258 34.2669 18.9357ZM30.8251 27.7535C30.1589 25.8397 27.6888 24.5389 26.5774 25.5318C28.2707 25.8023 29.6643 26.5621 30.8251 27.7535ZM36.4839 61.9829C35.6576 62.2563 34.875 62.7312 34.1011 62.7139C33.3039 62.6967 32.5155 62.2046 31.7649 61.9369C31.858 62.806 33.2632 63.4392 34.7819 63.1945C35.8555 63.0219 36.5741 62.4146 36.4839 61.9829ZM19.6036 58.0805C18.5765 55.3322 17.5466 52.5838 16.6563 50.198C17.1451 52.7306 18.0499 55.5308 19.6036 58.0805ZM25.6377 49.3433C25.9751 48.0569 28.0088 48.0109 27.875 46.2813C26.2777 46.7417 25.8064 47.9303 25.6377 49.3433ZM23.2927 27.3592C23.3509 27.3391 23.4091 27.3161 23.4672 27.2959C23.3247 26.4412 23.1385 25.5893 23.0483 24.7288C22.8708 23.0424 23.6942 22.3546 25.3787 22.792C24.9219 22.0812 24.2644 22.087 23.6389 22.2884C22.8941 22.5302 22.5828 23.1949 22.6642 23.9C22.801 25.0627 23.0745 26.2081 23.2927 27.3592ZM42.6722 49.185C42.4307 47.9101 41.9827 46.7129 40.3243 46.4021C40.4291 46.8338 40.5716 47.277 40.8626 47.5763C41.427 48.1605 42.0758 48.6642 42.6722 49.185ZM31.3954 40.5629C32.0645 39.5816 31.858 38.6981 30.6942 37.9728C30.4382 38.3527 30.1792 38.7384 30.0599 38.9139C30.5662 39.5384 30.9677 40.0363 31.3954 40.5629ZM44.7699 27.3707C44.8601 27.3851 44.9503 27.3966 45.0405 27.411C45.2063 26.0987 45.4623 24.7893 45.4885 23.4741C45.4972 23.0683 44.9532 22.4899 44.5197 22.2855C44.028 22.0524 43.3501 22.0697 42.9573 22.7489C44.6826 22.4093 45.5351 23.2669 45.215 24.962C45.0666 25.762 44.9183 26.5678 44.7699 27.3707ZM36.897 40.5082C37.3131 40.0104 37.7379 39.5039 38.2295 38.9197C38.0637 38.6952 37.7873 38.3239 37.5109 37.9527C36.3675 38.8304 36.1959 39.8089 36.897 40.5082ZM25.0267 23.241C24.2906 23.4194 23.9909 23.6986 23.988 24.2396C23.988 24.7922 24.3284 25.0771 24.8492 25.0886C25.4311 25.1001 25.8122 24.7173 25.7308 24.1878C25.6784 23.8453 25.274 23.5547 25.0267 23.241ZM44.4499 24.3864C44.444 24.2626 44.4382 24.1389 44.4324 24.0151C44.0891 23.8051 43.7632 23.4712 43.3937 23.4137C42.809 23.3244 42.4191 23.7619 42.5704 24.2972C42.6606 24.6224 43.1435 25.0253 43.4694 25.0425C43.7836 25.0569 44.1211 24.6224 44.4499 24.3864ZM48.6423 58.0604C50.1057 55.6545 51.0455 53.0443 51.5197 50.5578C50.6265 52.8917 49.6344 55.4761 48.6423 58.0604ZM37.3946 46.8799C39.1227 46.7676 39.6493 46.1115 39.3875 44.4682C38.6572 45.3517 38.0259 46.1143 37.3946 46.8799ZM30.8629 46.8799C30.2432 46.1259 29.6206 45.3719 29.0009 44.6179C28.7245 46.2698 29.1086 46.7417 30.8629 46.8799ZM42.8904 28.519C44.2026 26.7606 43.1464 25.621 42.0147 24.5015C42.2416 25.0857 42.6169 25.6296 42.7479 26.2282C42.905 26.9304 42.8497 27.6758 42.8904 28.519ZM41.9565 23.6957C42.0496 23.3101 41.8256 22.7776 41.2612 22.6424C40.6676 22.5014 40.5454 22.1445 40.3825 21.6898C39.9636 20.5272 39.0936 20.1127 38.1132 20.5732C39.1489 20.6768 39.6202 21.0509 40.1003 22.0352C40.2312 22.2999 40.4931 22.5158 40.7287 22.7172C41.1477 23.077 41.5928 23.405 41.9565 23.6957ZM30.0745 20.5272C28.9456 20.2192 28.1834 20.7056 27.7848 21.8337C27.6859 22.1129 27.4269 22.415 27.1593 22.5417C26.5512 22.8323 26.2341 23.2065 26.333 23.6957C26.6618 23.4137 27.0429 23.0971 27.4124 22.7661C27.683 22.5244 28.0234 22.3086 28.1805 22.0064C28.5907 21.2035 29.1115 20.6049 30.0745 20.5272ZM25.2565 28.2917C25.3758 27.6931 25.6464 27.1463 25.5446 26.6772C25.3845 25.9261 25.6027 25.4397 26.1264 24.962C26.2544 24.8468 26.2341 24.5734 26.2835 24.3749C25.4224 25.5519 23.9415 26.5707 25.2565 28.2917ZM14.5586 44.4768C14.6692 41.5155 14.7769 38.6463 14.8845 35.7799C14.6459 35.9209 14.5063 36.1339 14.5005 36.3526C14.4859 36.8303 14.5528 37.308 14.5557 37.7858C14.5645 39.9845 14.5586 42.186 14.5586 44.4768ZM53.3323 35.5123C53.4777 38.2462 53.6116 40.8018 53.7483 43.3573C53.7687 42.9947 53.7687 42.6292 53.7687 42.2666C53.7745 40.2694 53.7948 38.2721 53.7716 36.2749C53.7687 36.0533 53.5272 35.8346 53.3323 35.5123ZM37.2083 25.2555C37.2316 25.267 37.2578 25.2814 37.2811 25.2929C38.055 24.4756 38.8405 23.6698 39.5941 22.8323C39.7453 22.6625 39.7686 22.3834 39.8501 22.1531C39.7512 22.1071 39.6522 22.0611 39.5504 22.015C38.7678 23.0971 37.9881 24.1763 37.2083 25.2555ZM26.397 26.4728C26.3592 26.5649 26.3214 26.6599 26.2835 26.752C27.3949 27.0628 28.5092 27.3765 29.8097 27.7391C28.6896 26.9362 27.6364 26.4585 26.397 26.4728ZM30.7873 25.244C30.8513 25.1951 30.9153 25.149 30.9822 25.1001C30.2171 24.0727 29.4519 23.0453 28.6896 22.0179C28.5878 22.0956 28.4831 22.1733 28.3812 22.2481C28.8991 23.4597 30.252 24.0468 30.7873 25.244ZM41.9565 26.775C41.8983 26.6139 41.8372 26.4556 41.779 26.2944C40.72 26.6829 39.661 27.0714 38.602 27.4599C38.6311 27.5233 38.6601 27.5866 38.6892 27.6499C39.7774 27.3592 40.8655 27.0686 41.9565 26.775ZM42.2503 28.2427C41.299 28.1708 40.5367 28.1103 39.7715 28.0528C39.7657 28.1075 39.7628 28.1622 39.757 28.2168C40.3941 28.5046 41.0284 28.7924 41.7179 29.1032C41.8459 28.9018 41.9739 28.6917 42.2503 28.2427ZM26.5221 29.1061C27.2698 28.7751 27.9012 28.496 28.5325 28.2197C28.5267 28.165 28.5238 28.1104 28.518 28.0557C27.7557 28.1132 26.9934 28.1737 26.0682 28.2456C26.2952 28.6802 26.4057 28.8903 26.5221 29.1061ZM28.55 58.0604C28.6227 58.0978 28.6954 58.1352 28.7682 58.1726C29.3762 57.0272 29.9814 55.879 30.5895 54.7336C30.5255 54.699 30.4614 54.6674 30.3974 54.6329C29.7777 55.7754 29.1639 56.9179 28.55 58.0604ZM47.9266 52.6615C46.9141 53.4846 46.0093 54.2213 45.474 54.6559C45.7504 53.9047 47.624 54.3192 47.9266 52.6615ZM39.5184 58.1899C39.5853 58.141 39.6522 58.0921 39.7192 58.0431C39.1053 56.9179 38.4914 55.7955 37.8746 54.6703C37.8077 54.7077 37.7437 54.7451 37.6768 54.7825C38.2906 55.9164 38.9045 57.0532 39.5184 58.1899ZM20.3542 52.6989C20.6597 54.253 22.3151 53.922 22.609 54.4803C22.158 54.1263 21.3143 53.4587 20.3542 52.6989ZM26.2399 27.8139C27.1331 27.8139 27.9826 27.8139 28.7653 27.8139C27.6975 27.1808 26.8305 27.1549 26.2399 27.8139ZM39.4428 27.8139C40.2923 27.8139 41.1302 27.8139 41.9798 27.8139C41.5026 27.1722 40.7404 27.1693 39.4428 27.8139ZM32.2769 24.2972C32.3235 24.2828 32.3671 24.2684 32.4137 24.254C32.0383 23.0942 31.6601 21.9316 31.2848 20.7718C31.2121 20.7948 31.1422 20.8178 31.0695 20.8408C31.471 21.992 31.8725 23.1431 32.2769 24.2972ZM37.0687 21.1171C36.9989 21.097 36.929 21.074 36.8592 21.0538C36.4926 22.2712 36.1231 23.4885 35.7566 24.7058C35.7944 24.7174 35.8351 24.7289 35.8729 24.7404C36.2715 23.5345 36.6701 22.3258 37.0687 21.1171ZM39.5155 21.6121C39.4224 21.5488 39.3293 21.4855 39.2362 21.4222C38.7329 22.1532 38.2266 22.8813 37.7233 23.6122C37.7611 23.6381 37.8019 23.664 37.8397 23.6899C38.3983 22.9992 38.9569 22.3057 39.5155 21.6121ZM29.0097 21.4366C28.9282 21.497 28.8438 21.5574 28.7624 21.6179C29.2802 22.2596 29.7981 22.9014 30.316 23.546C30.3625 23.5144 30.4062 23.4798 30.4527 23.4482C29.9698 22.7748 29.4897 22.1071 29.0097 21.4366ZM40.2603 23.0453C40.2079 22.9877 40.1585 22.9302 40.1061 22.8726C39.533 23.4914 38.9598 24.1101 38.3867 24.7288C38.3721 24.7173 38.3605 24.7058 38.3459 24.6943C38.9831 24.1446 39.6202 23.595 40.2603 23.0453ZM28.1834 22.8553C28.1223 22.9215 28.0641 22.9877 28.003 23.0539C28.5965 23.5518 29.1929 24.0497 29.7865 24.5504C29.8156 24.5188 29.8447 24.4842 29.8767 24.4526C29.3151 23.9202 28.7507 23.3878 28.1834 22.8553Z" fill="#F09A5E"/>
    <path d="M36.0619 37.5757C36.0183 38.7729 35.9688 39.973 35.9339 41.1702C35.9019 42.2695 35.4073 42.753 34.2901 42.753C32.687 42.753 32.2186 42.235 32.3437 40.632C32.4339 39.4377 32.7743 38.2002 31.7764 37.098C32.0237 36.8793 32.2215 36.6318 32.4804 36.485C33.01 36.1857 33.4056 36.4102 33.522 37.0116C33.6471 37.6592 33.7955 38.3038 33.9322 38.9485C34.0573 38.9571 34.1795 38.9628 34.3046 38.9715C34.4617 38.2981 34.5927 37.616 34.7963 36.957C34.8632 36.7354 35.1629 36.3814 35.2764 36.4102C35.6371 36.4965 35.9863 36.7009 36.2743 36.9368C36.3412 36.9915 36.1376 37.3656 36.0561 37.5959C35.7652 37.6764 35.416 37.6707 35.2036 37.8405C34.4705 38.4247 34.4937 39.2334 34.6043 40.0795C34.6974 40.7989 34.6887 41.5299 34.7294 42.33C35.224 42.353 35.4539 41.9098 35.48 41.3889C35.5179 40.7184 35.4859 40.0392 35.4102 39.3715C35.3287 38.6492 35.4509 38.0333 36.0619 37.5757ZM32.2244 37.4923C33.0885 38.3959 32.8005 39.2765 32.7714 40.1313C32.7539 40.655 32.7394 41.199 32.8703 41.6968C32.9459 41.9789 33.3213 42.1803 33.4696 42.3271C33.554 41.4033 33.5947 40.5716 33.714 39.7485C33.8682 38.7125 33.4551 37.9412 32.2244 37.4923Z" fill="#F09A5E"/>
</svg>
